<svg width="343" height="219" viewBox="0 0 343 219" fill="none" xmlns="http://www.w3.org/2000/svg">
<g clip-path="url(#clip0_591_116)">
<rect x="0.828369" y="0.0958519" width="341.746" height="218.493" rx="6.72287" fill="url(#paint0_linear_591_116)"/>
<path opacity="0.4" d="M69.4521 102.62C44.2718 102.516 20.0768 112.401 2.17205 130.109C-15.7327 147.817 -25.886 171.904 -26.0631 197.088C-26.0813 209.511 -23.6188 221.812 -18.82 233.27C-14.0212 244.728 -6.98298 255.113 1.8821 263.814C5.63659 267.503 10.6897 269.571 15.9533 269.571C21.2169 269.571 26.27 267.503 30.0245 263.814C31.872 261.995 33.3392 259.828 34.3407 257.436C35.3422 255.045 35.8578 252.479 35.8578 249.886C35.8578 247.294 35.3422 244.728 34.3407 242.337C33.3392 239.945 31.872 237.778 30.0245 235.959C24.8587 230.877 20.756 224.818 17.9554 218.134C15.1549 211.45 13.7128 204.276 13.7128 197.029C13.7128 189.782 15.1549 182.607 17.9554 175.924C20.756 169.24 24.8587 163.18 30.0245 158.099C40.525 147.766 54.6653 141.975 69.3958 141.975C84.1262 141.975 98.2665 147.766 108.767 158.099C113.933 163.18 118.036 169.24 120.836 175.924C123.637 182.607 125.079 189.782 125.079 197.029C125.079 204.276 123.637 211.45 120.836 218.134C118.036 224.818 113.933 230.877 108.767 235.959C106.92 237.777 105.452 239.944 104.451 242.335C103.449 244.726 102.934 247.292 102.934 249.884C102.934 252.476 103.449 255.042 104.451 257.432C105.452 259.823 106.92 261.99 108.767 263.808C112.521 267.498 117.575 269.565 122.838 269.565C128.102 269.565 133.155 267.498 136.909 263.808C145.796 255.118 152.857 244.739 157.678 233.282C162.498 221.824 164.98 209.519 164.978 197.088C164.801 171.902 154.646 147.814 136.739 130.105C118.832 112.396 94.6344 102.513 69.4521 102.62Z" fill="url(#paint1_linear_591_116)"/>
<path d="M317.347 -59.9581C295.849 -60.0564 275.189 -51.6328 259.9 -36.5352C244.611 -21.4376 235.942 -0.898849 235.794 20.5753C235.794 42.1804 244.386 62.9007 259.68 78.1778C274.975 93.4549 295.718 102.037 317.347 102.037C338.976 102.037 359.72 93.4549 375.014 78.1778C390.308 62.9007 398.9 42.1804 398.9 20.5753C398.752 -0.898849 390.083 -21.4376 374.794 -36.5352C359.505 -51.6328 338.846 -60.0564 317.347 -59.9581ZM317.347 63.1094C308.945 63.0141 300.759 60.4382 293.82 55.7061C286.88 50.974 281.497 44.297 278.348 36.5157C275.199 28.7344 274.424 20.1965 276.122 11.9765C277.82 3.75664 281.915 -3.77788 287.89 -9.67867C293.865 -15.5795 301.454 -19.5828 309.702 -21.1848C317.95 -22.7868 326.488 -21.9158 334.242 -18.6815C341.995 -15.4473 348.618 -9.99426 353.276 -3.00881C357.933 3.97663 360.419 12.1823 360.418 20.5753C360.386 26.1931 359.246 31.7496 357.064 36.9275C354.883 42.1054 351.701 46.8033 347.702 50.7529C343.702 54.7026 338.963 57.8267 333.755 59.9468C328.546 62.067 322.971 63.1416 317.347 63.1094Z" fill="url(#paint2_linear_591_116)"/>
<g opacity="0.6">
<path d="M93.8387 111.805C94.9839 110.66 95.6272 109.107 95.6272 107.487C95.6272 105.868 94.9839 104.315 93.8387 103.169" stroke="white" stroke-width="2.8012" stroke-linecap="round" stroke-linejoin="round"/>
<path d="M98.5373 114.671C100.164 112.63 101.049 110.096 101.049 107.486C101.049 104.876 100.163 102.343 98.5354 100.301" stroke="white" stroke-width="2.8012" stroke-linecap="round" stroke-linejoin="round"/>
<path d="M102.679 117.497C104.859 114.632 106.043 111.135 106.054 107.535C106.064 103.936 104.9 100.432 102.737 97.5546" stroke="white" stroke-width="2.8012" stroke-linecap="round" stroke-linejoin="round"/>
<path d="M107.305 94.6133C110.102 98.4766 111.564 103.146 111.472 107.914C111.379 112.683 109.736 117.291 106.791 121.043" stroke="white" stroke-width="2.8012" stroke-linecap="round" stroke-linejoin="round"/>
</g>
<rect x="37.5241" y="89.482" width="47.4803" height="34.4469" rx="7.00299" fill="url(#paint3_linear_591_116)" stroke="url(#paint4_linear_591_116)" stroke-width="0.560239"/>
<mask id="mask0_591_116" style="mask-type:alpha" maskUnits="userSpaceOnUse" x="37" y="89" width="48" height="35">
<rect x="38.0843" y="90.0423" width="46.3598" height="33.3264" rx="6.44275" fill="#DCD59E" stroke="black" stroke-width="0.560239"/>
</mask>
<g mask="url(#mask0_591_116)">
<path opacity="0.5" fill-rule="evenodd" clip-rule="evenodd" d="M62.3693 90.8722C61.959 90.0367 60.768 90.0367 60.3577 90.8722L56.1416 99.459C56.1416 99.459 58.2304 105.767 56.1416 112.962L60.3384 122.473C60.7315 123.363 61.9955 123.363 62.3886 122.473L66.5854 112.962C66.5854 112.962 64.4966 109.052 66.5854 99.459L62.3693 90.8722Z" stroke="#BFB985" stroke-width="0.728311" stroke-linejoin="bevel"/>
<path opacity="0.5" d="M37.3428 99.4131H56.0091" stroke="#BFB985" stroke-width="0.728311" stroke-linejoin="bevel"/>
<path opacity="0.5" d="M66.1418 99.4131H85.3415" stroke="#BFB985" stroke-width="0.728311" stroke-linejoin="bevel"/>
<path opacity="0.5" d="M37.3428 112.858H56.0091" stroke="#BFB985" stroke-width="0.728311" stroke-linejoin="bevel"/>
<path opacity="0.5" d="M66.1418 112.858H85.3415" stroke="#BFB985" stroke-width="0.728311" stroke-linejoin="bevel"/>
</g>
<path fill-rule="evenodd" clip-rule="evenodd" d="M69.5759 26.4429C69.8344 26.1773 70.0374 25.8629 70.1731 25.518C70.3088 25.1732 70.3745 24.8047 70.3665 24.4342C70.3584 24.0637 70.2766 23.6985 70.126 23.3599C69.9753 23.0213 69.7588 22.7161 69.489 22.462C67.7824 20.8443 65.6414 19.759 63.3278 19.3387C61.0141 18.9185 58.6282 19.1816 56.4617 20.0959C54.2952 21.0101 52.4421 22.5359 51.129 24.4866C49.8159 26.4373 49.0997 28.7284 49.0681 31.0797C49.0997 33.4309 49.8159 35.722 51.129 37.6727C52.4421 39.6234 54.2952 41.1492 56.4617 42.0635C58.6282 42.9777 61.0141 43.2408 63.3278 42.8206C65.6414 42.4004 67.7824 41.315 69.489 39.6973C69.7588 39.4432 69.9753 39.138 70.126 38.7994C70.2766 38.4608 70.3584 38.0956 70.3665 37.7251C70.3745 37.3546 70.3088 36.9862 70.1731 36.6413C70.0374 36.2965 69.8344 35.9821 69.5759 35.7165C69.0503 35.1774 68.334 34.8664 67.5812 34.8504C66.8285 34.8345 66.0996 35.1149 65.5516 35.6312C64.336 36.7783 62.7214 37.4069 61.0501 37.3836C59.3788 37.3603 57.7823 36.687 56.5991 35.5064C56.0169 34.9256 55.555 34.2356 55.2399 33.476C54.9247 32.7164 54.7625 31.9021 54.7625 31.0797C54.7625 30.2573 54.9247 29.443 55.2399 28.6834C55.555 27.9237 56.0169 27.2338 56.5991 26.6529C57.7823 25.4724 59.3788 24.7991 61.0501 24.7758C62.7214 24.7525 64.336 25.3811 65.5516 26.5282C66.0996 27.0446 66.8286 27.325 67.5814 27.3088C68.3342 27.2927 69.0505 26.9814 69.5759 26.4421V26.4429ZM22.7941 23.0757C25.3546 20.5439 28.8145 19.1306 32.4154 19.1458C36.0163 19.1306 39.4763 20.5439 42.0368 23.0757C44.5973 25.6076 46.0494 29.0514 46.0747 32.6522C46.0748 34.4293 45.7198 36.1885 45.0305 37.8265C44.3412 39.4645 43.3316 40.9483 42.0609 42.1906C41.524 42.7182 40.8014 43.0138 40.0487 43.0138C39.296 43.0138 38.5734 42.7182 38.0366 42.1906C37.7724 41.9306 37.5626 41.6207 37.4194 41.2788C37.2761 40.937 37.2024 40.57 37.2024 40.1994C37.2024 39.8288 37.2761 39.4618 37.4194 39.1199C37.5626 38.7781 37.7724 38.4681 38.0366 38.2082C38.7754 37.4816 39.3622 36.6152 39.7627 35.6595C40.1633 34.7038 40.3695 33.678 40.3695 32.6418C40.3695 31.6055 40.1633 30.5797 39.7627 29.624C39.3622 28.6683 38.7754 27.8019 38.0366 27.0753C36.5349 25.598 34.5127 24.7701 32.4062 24.7701C30.2996 24.7701 28.2774 25.598 26.7758 27.0753C26.0369 27.8019 25.4501 28.6683 25.0496 29.624C24.6491 30.5797 24.4428 31.6055 24.4428 32.6418C24.4428 33.678 24.6491 34.7038 25.0496 35.6595C25.4501 36.6152 26.0369 37.4816 26.7758 38.2082C27.0399 38.4681 27.2497 38.7781 27.393 39.1199C27.5362 39.4618 27.6099 39.8288 27.6099 40.1994C27.6099 40.57 27.5362 40.937 27.393 41.2788C27.2497 41.6207 27.0399 41.9306 26.7758 42.1906C26.2389 42.7182 25.5163 43.0138 24.7636 43.0138C24.0109 43.0138 23.2883 42.7182 22.7514 42.1906C21.4841 40.9467 20.4779 39.4623 19.7918 37.8244C19.1057 36.1864 18.7536 34.428 18.7561 32.6522C18.7814 29.0514 20.2335 25.6076 22.7941 23.0757ZM84.7641 19.146C81.5815 19.1315 78.523 20.3799 76.2597 22.6174C73.9964 24.8549 72.7131 27.8988 72.6911 31.0813C72.6911 34.2832 73.9631 37.354 76.2272 39.6181C78.4913 41.8823 81.5621 43.1542 84.7641 43.1542C87.966 43.1542 91.0368 41.8823 93.3009 39.6181C95.565 37.354 96.837 34.2832 96.837 31.0813C96.815 27.8988 95.5317 24.8549 93.2683 22.6174C91.005 20.3799 87.9466 19.1315 84.7641 19.146ZM84.7641 37.385C83.5203 37.3708 82.3084 36.9891 81.2811 36.2878C80.2538 35.5865 79.4569 34.5969 78.9907 33.4437C78.5245 32.2905 78.4099 31.0252 78.6612 29.8069C78.9126 28.5887 79.5187 27.4721 80.4033 26.5976C81.2879 25.7231 82.4113 25.1298 83.6323 24.8923C84.8533 24.6549 86.1173 24.784 87.2651 25.2633C88.4129 25.7426 89.3933 26.5508 90.0828 27.5861C90.7723 28.6213 91.1402 29.8374 91.1402 31.0813C91.1354 31.9139 90.9667 32.7374 90.6437 33.5047C90.3207 34.2721 89.8497 34.9684 89.2577 35.5537C88.6656 36.1391 87.964 36.6021 87.193 36.9163C86.422 37.2305 85.5966 37.3897 84.7641 37.385ZM113.368 19.146C109.767 19.131 106.307 20.5443 103.747 23.0762C101.187 25.608 99.7347 29.0517 99.7094 32.6524C99.7068 34.4285 100.059 36.1873 100.745 37.8255C101.431 39.4637 102.438 40.9484 103.705 42.1924C104.242 42.7199 104.965 43.0155 105.718 43.0155C106.47 43.0155 107.193 42.7199 107.73 42.1924C107.994 41.9324 108.204 41.6225 108.347 41.2806C108.49 40.9388 108.564 40.5718 108.564 40.2012C108.564 39.8305 108.49 39.4636 108.347 39.1217C108.204 38.7799 107.994 38.4699 107.73 38.21C106.991 37.4834 106.404 36.6171 106.004 35.6614C105.603 34.7058 105.397 33.6801 105.397 32.6439C105.397 31.6078 105.603 30.582 106.004 29.6264C106.404 28.6708 106.991 27.8045 107.73 27.0779C109.231 25.6006 111.253 24.7727 113.36 24.7727C115.466 24.7727 117.488 25.6006 118.99 27.0779C119.728 27.8045 120.315 28.6708 120.716 29.6264C121.116 30.582 121.322 31.6078 121.322 32.6439C121.322 33.6801 121.116 34.7058 120.716 35.6614C120.315 36.6171 119.728 37.4834 118.99 38.21C118.726 38.4699 118.516 38.7797 118.373 39.1215C118.229 39.4633 118.156 39.8302 118.156 40.2008C118.156 40.5714 118.229 40.9382 118.373 41.28C118.516 41.6218 118.726 41.9317 118.99 42.1916C119.527 42.7191 120.249 43.0147 121.002 43.0147C121.755 43.0147 122.477 42.7191 123.014 42.1916C124.285 40.9492 125.295 39.4653 125.984 37.8271C126.673 36.189 127.028 34.4296 127.028 32.6524C127.003 29.0514 125.55 25.6075 122.99 23.0756C120.429 20.5437 116.969 19.1306 113.368 19.146ZM63.9859 31.065C63.9945 32.619 62.7273 33.8858 61.1555 33.8945C59.5837 33.9032 58.3026 32.6505 58.294 31.0965C58.2854 29.5425 59.5526 28.2757 61.1243 28.267C62.6961 28.2583 63.9773 29.511 63.9859 31.065Z" fill="white"/>
<path d="M142.889 28.9264H137.307V42.6234H139.748V37.7132H142.889C145.93 37.7132 147.231 35.5463 147.231 33.3198C147.231 31.133 145.93 28.9264 142.889 28.9264ZM142.769 35.5264H139.748V31.0932H142.829C144.23 31.0932 144.79 32.2463 144.79 33.3198C144.79 34.433 144.21 35.5264 142.769 35.5264Z" fill="white"/>
<path d="M157.909 37.8921C157.909 34.9897 155.808 33.1408 153.127 33.1408C150.467 33.1408 148.226 35.0095 148.226 37.9716C148.226 40.874 150.347 42.8222 153.147 42.8222C154.848 42.8222 156.489 42.1066 157.349 40.7547L155.808 39.5818C155.248 40.3373 154.288 40.7349 153.268 40.7349C151.887 40.7349 150.887 40.0788 150.627 38.7867H157.849C157.889 38.4487 157.909 38.1505 157.909 37.8921ZM150.627 37.1764C150.907 35.765 151.907 35.1686 153.168 35.1686C154.468 35.1686 155.448 35.9041 155.588 37.1764H150.627Z" fill="white"/>
<path d="M161.341 31.471C162.181 31.471 162.862 30.8547 162.862 30.0595C162.862 29.2444 162.181 28.6481 161.341 28.6481C160.521 28.6481 159.841 29.2444 159.841 30.0595C159.841 30.8547 160.521 31.471 161.341 31.471ZM157.5 47.156H158.72C161.341 47.156 162.501 45.5457 162.501 42.9614V33.3396L160.181 33.3396V42.9614C160.201 44.015 159.861 45.009 158.64 45.009H157.5V47.156Z" fill="white"/>
<path d="M169.638 42.8222C172.299 42.8222 174.62 40.8939 174.62 37.9517C174.62 35.0095 172.299 33.1408 169.638 33.1408C166.977 33.1408 164.677 35.0095 164.677 37.9517C164.677 40.8939 166.977 42.8222 169.638 42.8222ZM169.638 40.6752C168.198 40.6752 167.017 39.5818 167.017 37.9517C167.017 36.3613 168.198 35.2878 169.638 35.2878C171.079 35.2878 172.279 36.3613 172.279 37.9517C172.279 39.5818 171.079 40.6752 169.638 40.6752Z" fill="white"/>
<path d="M181.769 33.3396H179.789V29.9204H177.468V33.3396H175.787V35.1884H177.468V42.6234H179.789V35.1884H181.769V33.3396Z" fill="white"/>
<path d="M190.51 33.3396V34.5722C189.87 33.5981 188.57 33.1408 187.389 33.1408C184.929 33.1408 182.808 34.9897 182.808 37.9716C182.808 40.9337 184.949 42.8222 187.409 42.8222C188.55 42.8222 189.87 42.365 190.51 41.371V42.6234H192.831V33.3396H190.51ZM187.769 40.6553C186.329 40.6553 185.149 39.5023 185.149 37.9517C185.149 36.4011 186.329 35.2878 187.769 35.2878C189.11 35.2878 190.47 36.3216 190.47 37.9517C190.47 39.5818 189.19 40.6553 187.769 40.6553Z" fill="white"/>
<path d="M306.849 182.439C305.287 181.882 303.635 181.602 301.973 181.614C296.595 181.614 292.797 184.265 292.77 188.072C292.737 190.869 295.469 192.445 297.536 193.379C299.657 194.34 300.366 194.945 300.359 195.804C300.346 197.11 298.665 197.702 297.103 197.702C294.955 197.702 293.782 197.409 291.977 196.676L291.308 196.37L290.545 200.752C291.853 201.285 294.209 201.742 296.642 201.782C302.359 201.782 306.096 199.146 306.14 195.096C306.187 192.862 304.708 191.175 301.596 189.78C299.704 188.875 298.531 188.269 298.531 187.351C298.531 186.539 299.536 185.67 301.637 185.67C303.035 185.637 304.424 185.894 305.713 186.424L306.217 186.644L306.98 182.41L306.849 182.439ZM320.804 181.969H316.603C315.295 181.969 314.311 182.321 313.739 183.591L305.66 201.509H311.376L312.519 198.571L319.497 198.577C319.661 199.265 320.165 201.509 320.165 201.509H325.207L320.804 181.969ZM285.037 181.804H290.485L287.077 201.354H281.636L285.037 181.798V181.804ZM271.207 192.579L271.771 195.294L277.095 181.969H282.866L274.292 201.482H268.535L263.829 184.96C263.753 184.687 263.574 184.453 263.329 184.305C261.633 183.447 259.836 182.796 257.978 182.367L258.052 181.956H266.821C268.01 182.002 268.968 182.367 269.288 183.611L271.203 192.589V192.579H271.207ZM314.082 194.573L316.253 189.105C316.226 189.164 316.7 187.977 316.976 187.243L317.349 188.931L318.609 194.57H314.079V194.573H314.082Z" fill="white"/>
<path d="M19.2536 196.403C19.2536 195.488 19.4642 194.668 19.8855 193.942C20.3158 193.216 20.894 192.651 21.62 192.248C22.3551 191.836 23.1573 191.629 24.0268 191.629C25.0218 191.629 25.9048 191.876 26.6756 192.369C27.4555 192.853 28.0202 193.543 28.3698 194.44H26.5277C26.2857 193.947 25.9496 193.579 25.5193 193.337C25.089 193.095 24.5916 192.974 24.0268 192.974C23.4083 192.974 22.8571 193.113 22.373 193.391C21.889 193.669 21.508 194.068 21.2301 194.588C20.9612 195.107 20.8267 195.712 20.8267 196.403C20.8267 197.093 20.9612 197.698 21.2301 198.218C21.508 198.738 21.889 199.141 22.373 199.428C22.8571 199.706 23.4083 199.845 24.0268 199.845C24.5916 199.845 25.089 199.724 25.5193 199.482C25.9496 199.24 26.2857 198.872 26.5277 198.379H28.3698C28.0202 199.276 27.4555 199.966 26.6756 200.45C25.9048 200.934 25.0218 201.176 24.0268 201.176C23.1484 201.176 22.3461 200.974 21.62 200.571C20.894 200.159 20.3158 199.589 19.8855 198.863C19.4642 198.137 19.2536 197.317 19.2536 196.403ZM35.7977 199.186H31.885L31.2127 201.095H29.6127L32.9607 191.737H34.7355L38.0835 201.095H36.47L35.7977 199.186ZM35.3675 197.936L33.8481 193.593L32.3153 197.936H35.3675ZM44.3931 201.095L42.2418 197.357H41.072V201.095H39.5392V191.75H42.7662C43.4833 191.75 44.0884 191.876 44.5814 192.127C45.0834 192.378 45.4554 192.714 45.6974 193.135C45.9484 193.557 46.0739 194.027 46.0739 194.547C46.0739 195.157 45.8946 195.712 45.536 196.214C45.1864 196.707 44.6441 197.044 43.9091 197.223L46.2218 201.095H44.3931ZM41.072 196.134H42.7662C43.3399 196.134 43.7702 195.99 44.057 195.704C44.3528 195.417 44.5007 195.031 44.5007 194.547C44.5007 194.063 44.3573 193.687 44.0704 193.418C43.7836 193.14 43.3489 193.001 42.7662 193.001H41.072V196.134ZM52.297 201.189C51.4275 201.189 50.6253 200.988 49.8902 200.584C49.1642 200.172 48.586 199.603 48.1557 198.877C47.7344 198.142 47.5238 197.317 47.5238 196.403C47.5238 195.488 47.7344 194.668 48.1557 193.942C48.586 193.216 49.1642 192.651 49.8902 192.248C50.6253 191.836 51.4275 191.629 52.297 191.629C53.1755 191.629 53.9777 191.836 54.7038 192.248C55.4388 192.651 56.017 193.216 56.4383 193.942C56.8596 194.668 57.0703 195.488 57.0703 196.403C57.0703 197.317 56.8596 198.142 56.4383 198.877C56.017 199.603 55.4388 200.172 54.7038 200.584C53.9777 200.988 53.1755 201.189 52.297 201.189ZM52.297 199.858C52.9155 199.858 53.4668 199.719 53.9509 199.441C54.4349 199.155 54.8114 198.751 55.0803 198.231C55.3582 197.702 55.4971 197.093 55.4971 196.403C55.4971 195.712 55.3582 195.107 55.0803 194.588C54.8114 194.068 54.4349 193.669 53.9509 193.391C53.4668 193.113 52.9155 192.974 52.297 192.974C51.6785 192.974 51.1272 193.113 50.6432 193.391C50.1592 193.669 49.7782 194.068 49.5003 194.588C49.2314 195.107 49.0969 195.712 49.0969 196.403C49.0969 197.093 49.2314 197.702 49.5003 198.231C49.7782 198.751 50.1592 199.155 50.6432 199.441C51.1272 199.719 51.6785 199.858 52.297 199.858ZM60.1114 199.858H63.2712V201.095H58.5786V191.75H60.1114V199.858ZM66.0858 191.75V201.095H64.553V191.75H66.0858ZM75.7758 201.095H74.243L69.6311 194.117V201.095H68.0983V191.737H69.6311L74.243 198.702V191.737H75.7758V201.095ZM79.3215 192.987V195.73H82.5485V196.981H79.3215V199.845H82.9518V201.095H77.7887V191.737H82.9518V192.987H79.3215ZM93.9663 199.186H90.0536L89.3813 201.095H87.7813L91.1293 191.737H92.9041L96.2521 201.095H94.6386L93.9663 199.186ZM93.5361 197.936L92.0167 193.593L90.4839 197.936H93.5361ZM102.562 201.095L100.41 197.357H99.2406V201.095H97.7078V191.75H100.935C101.652 191.75 102.257 191.876 102.75 192.127C103.252 192.378 103.624 192.714 103.866 193.135C104.117 193.557 104.242 194.027 104.242 194.547C104.242 195.157 104.063 195.712 103.705 196.214C103.355 196.707 102.813 197.044 102.078 197.223L104.39 201.095H102.562ZM99.2406 196.134H100.935C101.508 196.134 101.939 195.99 102.226 195.704C102.521 195.417 102.669 195.031 102.669 194.547C102.669 194.063 102.526 193.687 102.239 193.418C101.952 193.14 101.517 193.001 100.935 193.001H99.2406V196.134ZM111.837 199.186H107.924L107.252 201.095H105.652L109 191.737L110.775 191.737L114.123 201.095L112.509 201.095L111.837 199.186ZM111.407 197.936L109.887 193.593L108.355 197.936H111.407ZM117.098 191.75V197.707C117.098 198.415 117.282 198.948 117.649 199.307C118.026 199.666 118.546 199.845 119.209 199.845C119.881 199.845 120.401 199.666 120.769 199.307C121.145 198.948 121.333 198.415 121.333 197.707V191.75H122.866V197.68C122.866 198.442 122.7 199.087 122.369 199.616C122.037 200.145 121.593 200.54 121.038 200.799C120.482 201.059 119.868 201.189 119.195 201.189C118.523 201.189 117.909 201.059 117.353 200.799C116.807 200.54 116.372 200.145 116.049 199.616C115.726 199.087 115.565 198.442 115.565 197.68V191.75H117.098ZM120.594 189.747L117.622 191.213V190.083L120.594 188.443V189.747ZM129.958 191.75V198.487C129.958 199.32 129.702 199.979 129.191 200.463C128.689 200.947 128.026 201.189 127.201 201.189C126.377 201.189 125.709 200.947 125.198 200.463C124.696 199.979 124.445 199.32 124.445 198.487H125.991C126 198.899 126.103 199.226 126.301 199.468C126.507 199.71 126.807 199.831 127.201 199.831C127.596 199.831 127.896 199.71 128.102 199.468C128.308 199.217 128.412 198.89 128.412 198.487V191.75H129.958ZM136.714 201.189C135.844 201.189 135.042 200.988 134.307 200.584C133.581 200.172 133.003 199.603 132.572 198.877C132.151 198.142 131.94 197.317 131.94 196.403C131.94 195.488 132.151 194.668 132.572 193.942C133.003 193.216 133.581 192.651 134.307 192.248C135.042 191.836 135.844 191.629 136.714 191.629C137.592 191.629 138.394 191.836 139.12 192.248C139.856 192.651 140.434 193.216 140.855 193.942C141.276 194.668 141.487 195.488 141.487 196.403C141.487 197.317 141.276 198.142 140.855 198.877C140.434 199.603 139.856 200.172 139.12 200.584C138.394 200.988 137.592 201.189 136.714 201.189ZM136.714 199.858C137.332 199.858 137.883 199.719 138.368 199.441C138.852 199.155 139.228 198.751 139.497 198.231C139.775 197.702 139.914 197.093 139.914 196.403C139.914 195.712 139.775 195.107 139.497 194.588C139.228 194.068 138.852 193.669 138.368 193.391C137.883 193.113 137.332 192.974 136.714 192.974C136.095 192.974 135.544 193.113 135.06 193.391C134.576 193.669 134.195 194.068 133.917 194.588C133.648 195.107 133.514 195.712 133.514 196.403C133.514 197.093 133.648 197.702 133.917 198.231C134.195 198.751 134.576 199.155 135.06 199.441C135.544 199.719 136.095 199.858 136.714 199.858Z" fill="white"/>
</g>
<defs>
<linearGradient id="paint0_linear_591_116" x1="-143.537" y1="43.0298" x2="372.315" y2="315.401" gradientUnits="userSpaceOnUse">
<stop stop-color="#00A5F0"/>
<stop offset="1" stop-color="#00D7D7"/>
</linearGradient>
<linearGradient id="paint1_linear_591_116" x1="139.217" y1="279.751" x2="18.4975" y2="155.014" gradientUnits="userSpaceOnUse">
<stop stop-color="white"/>
<stop offset="1" stop-color="white" stop-opacity="0"/>
</linearGradient>
<linearGradient id="paint2_linear_591_116" x1="274.479" y1="-122.779" x2="361.719" y2="88.7211" gradientUnits="userSpaceOnUse">
<stop stop-color="white"/>
<stop offset="1" stop-color="white" stop-opacity="0"/>
</linearGradient>
<linearGradient id="paint3_linear_591_116" x1="61.2642" y1="89.7621" x2="77.4256" y2="136.526" gradientUnits="userSpaceOnUse">
<stop stop-color="#DCD59E"/>
<stop offset="1" stop-color="#CBBB82"/>
</linearGradient>
<linearGradient id="paint4_linear_591_116" x1="40.9322" y1="91.6911" x2="61.2642" y2="123.649" gradientUnits="userSpaceOnUse">
<stop stop-color="#FBF3C0"/>
<stop offset="1" stop-color="#CCBC84"/>
</linearGradient>
<clipPath id="clip0_591_116">
<rect x="0.828369" y="0.0958519" width="341.746" height="218.493" rx="6.72287" fill="white"/>
</clipPath>
</defs>
</svg>
