<svg width="64" height="64" viewBox="0 0 64 64" fill="none" xmlns="http://www.w3.org/2000/svg">
<rect width="64" height="64" rx="8" fill="#00D7D7"/>
<path opacity="0.7" d="M31.9353 18.4889V46.9333" stroke="white" stroke-width="2" stroke-linecap="round" stroke-linejoin="round"/>
<path d="M38.4002 23.6606H28.7032C27.5031 23.6606 26.352 24.1374 25.5034 24.9861C24.6547 25.8347 24.178 26.9857 24.178 28.1859C24.178 29.3861 24.6547 30.5371 25.5034 31.3857C26.352 32.2344 27.5031 32.7112 28.7032 32.7112H35.1679C36.368 32.7112 37.5191 33.1879 38.3677 34.0366C39.2164 34.8852 39.6931 36.0362 39.6931 37.2364C39.6931 38.4366 39.2164 39.5876 38.3677 40.4362C37.5191 41.2849 36.368 41.7617 35.1679 41.7617H24.178" stroke="white" stroke-width="2" stroke-linecap="round" stroke-linejoin="round"/>
</svg>
