<svg width="64" height="64" viewBox="0 0 64 64" fill="none" xmlns="http://www.w3.org/2000/svg">
<rect width="64" height="64" rx="12" fill="#00D7D7"/>
<rect opacity="0.45" width="30.6988" height="22.8048" rx="3" transform="matrix(0.866044 0.499967 -0.866044 0.499967 28.1433 21.5122)" fill="url(#paint0_linear_591_378)"/>
<rect width="30.6988" height="22.8048" rx="3" transform="matrix(0.866044 0.499967 -0.866044 0.499967 28.1433 15.7377)" fill="white"/>
<path d="M32.4597 22.4615C31.5395 21.9258 30.2884 21.6229 28.9805 21.6192C27.6727 21.6155 26.415 21.9114 25.483 22.4419C25.026 22.705 24.6644 23.018 24.4195 23.3627C24.1746 23.7074 24.0513 24.0767 24.0569 24.449C24.059 24.6068 24.1685 24.7577 24.3617 24.8692C24.5548 24.9808 24.8162 25.044 25.0896 25.0452C25.2242 25.0458 25.3577 25.0309 25.4823 25.0014C25.6069 24.9719 25.7202 24.9284 25.8154 24.8734C25.9107 24.8184 25.9861 24.753 26.0372 24.6811C26.0883 24.6091 26.1141 24.532 26.1131 24.4543C26.1103 24.2371 26.1824 24.0216 26.3252 23.8205C26.468 23.6193 26.6787 23.4365 26.9451 23.2828C27.2114 23.129 27.528 23.0074 27.8764 22.9249C28.2248 22.8425 28.5981 22.8009 28.9744 22.8025C29.7395 22.8058 30.4712 22.9825 31.0118 23.2946C31.5524 23.6067 31.8586 24.0291 31.8642 24.4708C31.8671 24.6881 31.795 24.9036 31.6522 25.1047C31.5093 25.3058 31.2986 25.4886 31.0323 25.6424C30.766 25.7961 30.4494 25.9178 30.101 26.0002C29.7526 26.0827 29.3793 26.1243 29.003 26.1226C28.8684 26.1221 28.7349 26.137 28.6102 26.1665C28.4856 26.196 28.3724 26.2395 28.2771 26.2945C28.1819 26.3495 28.1065 26.4149 28.0554 26.4868C28.0043 26.5587 27.9784 26.6358 27.9794 26.7135C27.9816 26.8713 28.0911 27.0222 28.2842 27.1338C28.4774 27.2453 28.7388 27.3085 29.0122 27.3097C29.6576 27.3136 30.298 27.2431 30.8959 27.1022C31.4938 26.9612 32.037 26.7528 32.4937 26.4891C33.4127 25.9511 33.9251 25.225 33.9187 24.47C33.9124 23.715 33.3877 22.9927 32.4597 22.4615Z" fill="#00D7D7"/>
<defs>
<linearGradient id="paint0_linear_591_378" x1="35.0044" y1="15.2466" x2="18.6644" y2="36.2024" gradientUnits="userSpaceOnUse">
<stop stop-color="white"/>
<stop offset="1" stop-color="white" stop-opacity="0"/>
</linearGradient>
</defs>
</svg>
