<svg width="113" height="106" viewBox="0 0 113 106" fill="none" xmlns="http://www.w3.org/2000/svg">
<g opacity="0.56" filter="url(#filter0_f_591_319)">
<rect x="30" y="30" width="53" height="46" rx="12" fill="url(#paint0_linear_591_319)"/>
</g>
<rect x="24" y="6" width="65" height="65" rx="8" fill="url(#paint1_linear_591_319)"/>
<path d="M56.5 25.1178C52.1658 25.1003 48.0012 26.7303 44.9192 29.6505C41.8372 32.5708 40.0893 36.5429 40.0589 40.6961C40.0559 42.7443 40.4797 44.7725 41.3055 46.6616C42.1313 48.5508 43.3424 50.263 44.8679 51.6977C45.5141 52.3061 46.3838 52.6471 47.2898 52.6471C48.1958 52.6471 49.0656 52.3061 49.7118 51.6977C50.0298 51.3978 50.2823 51.0403 50.4547 50.646C50.6271 50.2517 50.7158 49.8285 50.7158 49.401C50.7158 48.9735 50.6271 48.5503 50.4547 48.156C50.2823 47.7617 50.0298 47.4042 49.7118 47.1043C48.8225 46.2663 48.1162 45.267 47.6341 44.1647C47.152 43.0624 46.9037 41.8792 46.9037 40.684C46.9037 39.4888 47.152 38.3056 47.6341 37.2033C48.1162 36.101 48.8225 35.1017 49.7118 34.2637C51.5193 32.5597 53.9533 31.6048 56.4889 31.6048C59.0245 31.6048 61.4585 32.5597 63.266 34.2637C64.1553 35.1017 64.8616 36.101 65.3437 37.2033C65.8258 38.3056 66.0741 39.4888 66.0741 40.684C66.0741 41.8792 65.8258 43.0624 65.3437 44.1647C64.8616 45.267 64.1553 46.2663 63.266 47.1043C62.948 47.4042 62.6955 47.7617 62.5231 48.156C62.3507 48.5503 62.2619 48.9735 62.2619 49.401C62.2619 49.8285 62.3507 50.2517 62.5231 50.646C62.6955 51.0403 62.948 51.3978 63.266 51.6977C63.9122 52.3061 64.782 52.6471 65.6879 52.6471C66.5939 52.6471 67.4637 52.3061 68.1099 51.6977C69.6394 50.2648 70.8546 48.5534 71.6843 46.6641C72.514 44.7749 72.9413 42.7458 72.9412 40.6961C72.9107 36.5429 71.1629 32.5708 68.0809 29.6505C64.9989 26.7303 60.8343 25.1003 56.5 25.1178Z" fill="white"/>
<defs>
<filter id="filter0_f_591_319" x="0" y="0" width="113" height="106" filterUnits="userSpaceOnUse" color-interpolation-filters="sRGB">
<feFlood flood-opacity="0" result="BackgroundImageFix"/>
<feBlend mode="normal" in="SourceGraphic" in2="BackgroundImageFix" result="shape"/>
<feGaussianBlur stdDeviation="15" result="effect1_foregroundBlur_591_319"/>
</filter>
<linearGradient id="paint0_linear_591_319" x1="30.5337" y1="44.0244" x2="84.6946" y2="55.6165" gradientUnits="userSpaceOnUse">
<stop stop-color="#008ECF"/>
<stop offset="1" stop-color="#08AEAE"/>
</linearGradient>
<linearGradient id="paint1_linear_591_319" x1="24.6545" y1="25.8171" x2="91.804" y2="38.2909" gradientUnits="userSpaceOnUse">
<stop stop-color="#00A5F0"/>
<stop offset="1" stop-color="#00D7D7"/>
</linearGradient>
</defs>
</svg>
