<svg width="1169" height="512" viewBox="0 0 1169 512" fill="none" xmlns="http://www.w3.org/2000/svg">
<rect width="1169" height="512" fill="url(#paint0_linear_13399_184)"/>
<path d="M832.891 69.0019C776.242 68.7636 721.808 90.8979 681.526 130.552C641.243 170.206 618.399 224.144 618 280.541C617.961 308.354 623.501 335.894 634.294 361.548C645.087 387.201 660.917 410.451 680.856 429.933C689.302 438.195 700.67 442.825 712.511 442.825C724.353 442.825 735.72 438.195 744.167 429.933C748.323 425.861 751.624 421.007 753.877 415.652C756.13 410.298 757.29 404.551 757.29 398.746C757.29 392.941 756.13 387.194 753.877 381.84C751.624 376.485 748.323 371.631 744.167 367.559C732.544 356.179 723.312 342.61 717.011 327.642C710.709 312.674 707.464 296.607 707.464 280.377C707.464 264.147 710.709 248.08 717.011 233.112C723.312 218.144 732.544 204.575 744.167 193.195C767.792 170.057 799.605 157.089 832.745 157.089C865.886 157.089 897.699 170.057 921.324 193.195C932.947 204.575 942.179 218.144 948.48 233.112C954.782 248.08 958.027 264.147 958.027 280.377C958.027 296.607 954.782 312.674 948.48 327.642C942.179 342.61 932.947 356.179 921.324 367.559C917.168 371.631 913.867 376.485 911.614 381.84C909.361 387.194 908.201 392.941 908.201 398.746C908.201 404.551 909.361 410.298 911.614 415.652C913.867 421.007 917.168 425.861 921.324 429.933C929.771 438.195 941.138 442.825 952.98 442.825C964.821 442.825 976.189 438.195 984.635 429.933C1004.63 410.475 1020.51 387.236 1031.35 361.582C1042.2 335.927 1047.78 308.374 1047.78 280.541C1047.38 224.144 1024.54 170.206 984.256 130.552C943.974 90.8979 889.541 68.7636 832.891 69.0019Z" fill="url(#paint1_linear_13399_184)"/>
<defs>
<linearGradient id="paint0_linear_13399_184" x1="11.7711" y1="156.098" x2="1070.63" y2="605.192" gradientUnits="userSpaceOnUse">
<stop stop-color="#00A5F0"/>
<stop offset="1" stop-color="#03E7E7"/>
</linearGradient>
<linearGradient id="paint1_linear_13399_184" x1="876.413" y1="228.322" x2="832.84" y2="411.429" gradientUnits="userSpaceOnUse">
<stop stop-color="white"/>
<stop offset="1" stop-color="white" stop-opacity="0"/>
</linearGradient>
</defs>
</svg>
