<svg width="342" height="600" viewBox="0 0 342 600" fill="none" xmlns="http://www.w3.org/2000/svg">
<g opacity="0.3" filter="url(#filter0_f_591_146)">
<path d="M69.1211 529.752C69.1211 522.526 74.9786 516.669 82.2042 516.669H259.97C267.196 516.669 273.053 522.526 273.053 529.752C273.053 536.953 267.234 542.8 260.034 542.835L171.087 543.269L82.1404 542.835C74.9398 542.8 69.1211 536.953 69.1211 529.752Z" fill="#15507E"/>
</g>
<g filter="url(#filter1_d_591_146)">
<path fill-rule="evenodd" clip-rule="evenodd" d="M254.694 42H87.3058C68.3592 42 53 57.3592 53 76.3058V502.17C53 521.117 68.3592 536.476 87.3058 536.476H254.694C273.641 536.476 289 521.117 289 502.17V76.3058C289 57.3592 273.641 42 254.694 42ZM60.0977 76.3058C60.0977 61.2792 72.2792 49.0977 87.3058 49.0977H104.508C106.547 49.815 108.008 51.7574 108.008 54.0408C108.008 61.2742 113.871 67.1378 121.105 67.1378H220.304C227.537 67.1378 233.401 61.2742 233.401 54.0408C233.401 51.7574 234.862 49.815 236.9 49.0977H254.694C269.721 49.0977 281.902 61.2792 281.902 76.3058V502.17C281.902 517.197 269.721 529.378 254.694 529.378H87.3058C72.2792 529.378 60.0977 517.197 60.0977 502.17V76.3058Z" fill="url(#paint0_linear_591_146)"/>
</g>
<g opacity="0.6">
<circle cx="156.788" cy="56.1382" r="2.09673" fill="#DFDFE6"/>
<rect x="161.681" y="54.0415" width="26.5586" height="4.19346" rx="2.09673" fill="#DFDFE6"/>
</g>
<mask id="mask0_591_146" style="mask-type:alpha" maskUnits="userSpaceOnUse" x="60" y="49" width="222" height="481">
<path fill-rule="evenodd" clip-rule="evenodd" d="M60.1346 74.8749C60.1101 75.3487 60.0977 75.8257 60.0977 76.3056V502.17C60.0977 517.197 72.2791 529.378 87.3057 529.378H254.694C269.721 529.378 281.902 517.197 281.902 502.17V76.3056C281.902 76.2469 281.902 76.1882 281.902 76.1296C281.807 61.1841 269.662 49.0976 254.694 49.0976H236.9C234.862 49.8148 233.401 51.7572 233.401 54.0407C233.401 61.274 227.537 67.1377 220.304 67.1377H121.104C113.871 67.1377 108.007 61.274 108.007 54.0407C108.007 51.7572 106.546 49.8148 104.508 49.0976H87.3057C80.5259 49.0976 74.3252 51.5774 69.5613 55.6794C67.7261 57.2596 66.1041 59.0806 64.7444 61.0933C62.0605 65.066 60.3983 69.7855 60.1346 74.8749Z" fill="black"/>
</mask>
<g mask="url(#mask0_591_146)">
<path d="M60.0942 49.0976H281.899V529.378H60.0942V49.0976Z" fill="url(#paint1_linear_591_146)"/>
<rect x="59.8225" y="49.2697" width="221.587" height="479.809" rx="9.45437" fill="url(#paint2_linear_591_146)"/>
<path fill-rule="evenodd" clip-rule="evenodd" d="M115.896 134.158C116.039 134.457 116.465 134.457 116.607 134.158L119.485 128.124H119.771L122.648 134.158C122.791 134.457 123.217 134.457 123.36 134.158L126.237 128.124H126.523L129.401 134.158C129.543 134.457 129.969 134.457 130.112 134.158L132.989 128.124H133.275L136.152 134.158C136.295 134.457 136.721 134.457 136.864 134.158L139.741 128.124H140.027L142.905 134.158C143.047 134.457 143.473 134.457 143.616 134.158L146.493 128.124H146.779L149.657 134.158C149.799 134.457 150.225 134.457 150.368 134.158L153.245 128.124H153.531L156.409 134.158C156.551 134.457 156.977 134.457 157.12 134.158L159.997 128.124H160.283L163.16 134.158C163.303 134.457 163.729 134.457 163.871 134.158L166.749 128.124H167.035L169.912 134.158C170.055 134.457 170.481 134.457 170.623 134.158L173.501 128.124H173.787L176.665 134.158C176.807 134.457 177.233 134.457 177.376 134.158L180.253 128.124H180.539L183.417 134.158C183.559 134.457 183.985 134.457 184.128 134.158L187.005 128.124H187.291L190.169 134.158C190.311 134.457 190.737 134.457 190.88 134.158L193.757 128.124H194.043L196.921 134.158C197.064 134.457 197.489 134.457 197.632 134.158L200.51 128.124H200.795L203.673 134.158C203.815 134.457 204.241 134.457 204.384 134.158L207.261 128.124H207.547L210.424 134.158C210.567 134.457 210.993 134.457 211.136 134.158L214.013 128.124H214.299L217.177 134.158C217.319 134.457 217.745 134.457 217.888 134.158L220.765 128.124H221.051L223.929 134.158C224.072 134.457 224.497 134.457 224.64 134.158L227.518 128.124H227.803L230.681 134.158C230.823 134.457 231.249 134.457 231.392 134.158L234.269 128.124H234.555L237.433 134.158C237.575 134.457 238.001 134.457 238.144 134.158L241.021 128.124H241.323L244.201 134.158C244.343 134.457 244.769 134.457 244.912 134.158L247.789 128.124H248.091L250.969 134.158C251.111 134.457 251.537 134.457 251.68 134.158L254.557 128.124H254.858L257.736 134.158C257.879 134.457 258.305 134.457 258.447 134.158L261.325 128.124H261.738V444.058H78.731V128.124H79.2587L82.1363 134.158C82.279 134.457 82.7048 134.457 82.8474 134.158L85.725 128.124H86.0103L88.8879 134.158C89.0306 134.457 89.4564 134.457 89.5991 134.158L92.4767 128.124H92.7629L95.6406 134.158C95.7832 134.457 96.209 134.457 96.3517 134.158L99.2293 128.124H99.5148L102.392 134.158C102.535 134.457 102.961 134.457 103.104 134.158L105.981 128.124H106.267L109.144 134.158C109.287 134.457 109.713 134.457 109.855 134.158L112.733 128.124H113.019L115.896 134.158Z" fill="#FBF9BE"/>
<rect opacity="0.6" x="78.731" y="399.149" width="183.178" height="39.3932" fill="url(#paint3_linear_591_146)"/>
<path d="M68.8828 426.725H271.758V447.209C271.758 448.95 270.347 450.361 268.606 450.361H72.0343C70.2938 450.361 68.8828 448.95 68.8828 447.209V426.725Z" fill="#0896D7"/>
<path d="M78.7311 426.725H68.8828L78.7311 421.604V426.725Z" fill="#0888C2"/>
<path d="M261.91 426.725H271.758L261.91 421.604V426.725Z" fill="#0888C2"/>
<path d="M129.86 98.7168C129.86 97.8512 130.053 97.078 130.44 96.3973C130.835 95.7082 131.368 95.1745 132.041 94.7964C132.721 94.4098 133.482 94.2165 134.322 94.2165C135.306 94.2165 136.167 94.4686 136.907 94.9728C137.646 95.4771 138.163 96.1746 138.457 97.0654H136.428C136.226 96.6452 135.94 96.3301 135.57 96.12C135.209 95.9099 134.789 95.8048 134.31 95.8048C133.797 95.8048 133.339 95.9267 132.936 96.1704C132.541 96.4057 132.23 96.7419 132.003 97.1789C131.784 97.6159 131.675 98.1285 131.675 98.7168C131.675 99.2966 131.784 99.8093 132.003 100.255C132.23 100.692 132.541 101.032 132.936 101.276C133.339 101.511 133.797 101.629 134.31 101.629C134.789 101.629 135.209 101.524 135.57 101.314C135.94 101.095 136.226 100.776 136.428 100.356H138.457C138.163 101.255 137.646 101.956 136.907 102.461C136.175 102.957 135.314 103.204 134.322 103.204C133.482 103.204 132.721 103.015 132.041 102.637C131.368 102.251 130.835 101.717 130.44 101.036C130.053 100.356 129.86 99.5824 129.86 98.7168ZM143.065 103.242C142.393 103.242 141.788 103.095 141.25 102.801C140.712 102.499 140.288 102.074 139.977 101.528C139.675 100.982 139.523 100.351 139.523 99.637C139.523 98.9227 139.679 98.2924 139.99 97.7461C140.309 97.1999 140.742 96.7797 141.288 96.4855C141.834 96.183 142.444 96.0317 143.116 96.0317C143.788 96.0317 144.398 96.183 144.944 96.4855C145.49 96.7797 145.919 97.1999 146.23 97.7461C146.549 98.2924 146.709 98.9227 146.709 99.637C146.709 100.351 146.545 100.982 146.217 101.528C145.898 102.074 145.461 102.499 144.906 102.801C144.36 103.095 143.746 103.242 143.065 103.242ZM143.065 101.704C143.385 101.704 143.683 101.629 143.961 101.477C144.246 101.318 144.473 101.082 144.641 100.772C144.809 100.461 144.893 100.082 144.893 99.637C144.893 98.9731 144.717 98.4647 144.364 98.1117C144.019 97.7503 143.595 97.5696 143.091 97.5696C142.586 97.5696 142.162 97.7503 141.818 98.1117C141.481 98.4647 141.313 98.9731 141.313 99.637C141.313 100.301 141.477 100.814 141.805 101.175C142.141 101.528 142.561 101.704 143.065 101.704ZM156.676 96.0443C157.533 96.0443 158.222 96.3091 158.743 96.8385C159.273 97.3595 159.537 98.0907 159.537 99.0319V103.129H157.773V99.2714C157.773 98.7252 157.634 98.3092 157.357 98.0235C157.079 97.7293 156.701 97.5822 156.222 97.5822C155.743 97.5822 155.361 97.7293 155.075 98.0235C154.798 98.3092 154.659 98.7252 154.659 99.2714V103.129H152.894V99.2714C152.894 98.7252 152.756 98.3092 152.478 98.0235C152.201 97.7293 151.823 97.5822 151.344 97.5822C150.856 97.5822 150.47 97.7293 150.184 98.0235C149.907 98.3092 149.768 98.7252 149.768 99.2714V103.129H148.003V96.1452H149.768V96.9898C149.995 96.6956 150.285 96.4645 150.638 96.2965C150.999 96.1284 151.394 96.0443 151.823 96.0443C152.369 96.0443 152.856 96.162 153.285 96.3973C153.714 96.6242 154.046 96.952 154.281 97.3806C154.508 96.9772 154.836 96.6536 155.264 96.4099C155.701 96.1662 156.172 96.0443 156.676 96.0443ZM162.977 97.1536C163.204 96.8343 163.515 96.5696 163.91 96.3595C164.313 96.141 164.771 96.0317 165.284 96.0317C165.881 96.0317 166.418 96.1788 166.897 96.4729C167.385 96.7671 167.767 97.1873 168.045 97.7335C168.33 98.2714 168.473 98.8975 168.473 99.6118C168.473 100.326 168.33 100.961 168.045 101.515C167.767 102.062 167.385 102.486 166.897 102.788C166.418 103.091 165.881 103.242 165.284 103.242C164.771 103.242 164.317 103.137 163.922 102.927C163.536 102.717 163.221 102.452 162.977 102.133V106.457H161.212V96.1452H162.977V97.1536ZM166.671 99.6118C166.671 99.1916 166.582 98.8302 166.406 98.5277C166.238 98.2167 166.011 97.9814 165.725 97.8218C165.448 97.6621 165.145 97.5822 164.817 97.5822C164.498 97.5822 164.196 97.6663 163.91 97.8344C163.633 97.994 163.406 98.2293 163.229 98.5403C163.061 98.8512 162.977 99.2168 162.977 99.637C162.977 100.057 163.061 100.423 163.229 100.734C163.406 101.045 163.633 101.284 163.91 101.452C164.196 101.612 164.498 101.692 164.817 101.692C165.145 101.692 165.448 101.608 165.725 101.44C166.011 101.272 166.238 101.032 166.406 100.721C166.582 100.41 166.671 100.04 166.671 99.6118ZM171.52 97.2293C171.747 96.8595 172.041 96.5696 172.403 96.3595C172.773 96.1494 173.193 96.0443 173.663 96.0443V97.8974H173.197C172.642 97.8974 172.222 98.0277 171.936 98.2882C171.659 98.5487 171.52 99.0025 171.52 99.6496V103.129H169.756V96.1452H171.52V97.2293ZM177.953 103.242C177.281 103.242 176.676 103.095 176.138 102.801C175.6 102.499 175.176 102.074 174.865 101.528C174.562 100.982 174.411 100.351 174.411 99.637C174.411 98.9227 174.566 98.2924 174.877 97.7461C175.197 97.1999 175.629 96.7797 176.176 96.4855C176.722 96.183 177.331 96.0317 178.004 96.0317C178.676 96.0317 179.285 96.183 179.831 96.4855C180.378 96.7797 180.806 97.1999 181.117 97.7461C181.437 98.2924 181.596 98.9227 181.596 99.637C181.596 100.351 181.432 100.982 181.105 101.528C180.785 102.074 180.348 102.499 179.794 102.801C179.247 103.095 178.634 103.242 177.953 103.242ZM177.953 101.704C178.272 101.704 178.571 101.629 178.848 101.477C179.134 101.318 179.361 101.082 179.529 100.772C179.697 100.461 179.781 100.082 179.781 99.637C179.781 98.9731 179.604 98.4647 179.252 98.1117C178.907 97.7503 178.483 97.5696 177.978 97.5696C177.474 97.5696 177.05 97.7503 176.705 98.1117C176.369 98.4647 176.201 98.9731 176.201 99.637C176.201 100.301 176.365 100.814 176.693 101.175C177.029 101.528 177.449 101.704 177.953 101.704ZM185.803 101.503L187.568 96.1452H189.446L186.862 103.129H184.719L182.147 96.1452H184.038L185.803 101.503ZM189.983 99.6118C189.983 98.9059 190.122 98.2798 190.399 97.7335C190.685 97.1873 191.067 96.7671 191.546 96.4729C192.034 96.1788 192.576 96.0317 193.172 96.0317C193.694 96.0317 194.147 96.1368 194.534 96.3469C194.929 96.557 195.244 96.8217 195.479 97.141V96.1452H197.257V103.129H195.479V102.108C195.252 102.435 194.937 102.709 194.534 102.927C194.139 103.137 193.681 103.242 193.16 103.242C192.572 103.242 192.034 103.091 191.546 102.788C191.067 102.486 190.685 102.062 190.399 101.515C190.122 100.961 189.983 100.326 189.983 99.6118ZM195.479 99.637C195.479 99.2084 195.395 98.8428 195.227 98.5403C195.059 98.2293 194.832 97.994 194.547 97.8344C194.261 97.6663 193.954 97.5822 193.626 97.5822C193.299 97.5822 192.996 97.6621 192.719 97.8218C192.441 97.9814 192.214 98.2167 192.038 98.5277C191.87 98.8302 191.786 99.1916 191.786 99.6118C191.786 100.032 191.87 100.402 192.038 100.721C192.214 101.032 192.441 101.272 192.719 101.44C193.004 101.608 193.307 101.692 193.626 101.692C193.954 101.692 194.261 101.612 194.547 101.452C194.832 101.284 195.059 101.049 195.227 100.746C195.395 100.435 195.479 100.066 195.479 99.637ZM202.85 96.0443C203.682 96.0443 204.355 96.3091 204.867 96.8385C205.38 97.3595 205.636 98.0907 205.636 99.0319V103.129H203.871V99.2714C203.871 98.7168 203.733 98.2924 203.456 97.9982C203.178 97.6957 202.8 97.5444 202.321 97.5444C201.834 97.5444 201.447 97.6957 201.161 97.9982C200.884 98.2924 200.745 98.7168 200.745 99.2714V103.129H198.98V96.1452H200.745V97.015C200.981 96.7124 201.279 96.4771 201.64 96.3091C202.01 96.1326 202.413 96.0443 202.85 96.0443ZM209.369 97.5949V100.973C209.369 101.209 209.424 101.381 209.533 101.49C209.651 101.591 209.844 101.641 210.113 101.641H210.932V103.129H209.823C208.336 103.129 207.592 102.406 207.592 100.961V97.5949H206.76V96.1452H207.592V94.4182H209.369V96.1452H210.932V97.5949H209.369ZM218.694 99.4857C218.694 99.7378 218.677 99.9648 218.643 100.166H213.538C213.58 100.671 213.757 101.066 214.067 101.351C214.378 101.637 214.761 101.78 215.215 101.78C215.87 101.78 216.337 101.498 216.614 100.935H218.517C218.316 101.608 217.929 102.162 217.358 102.599C216.786 103.028 216.084 103.242 215.252 103.242C214.58 103.242 213.975 103.095 213.437 102.801C212.908 102.499 212.492 102.074 212.189 101.528C211.895 100.982 211.748 100.351 211.748 99.637C211.748 98.9143 211.895 98.2798 212.189 97.7335C212.483 97.1873 212.895 96.7671 213.425 96.4729C213.954 96.1788 214.563 96.0317 215.252 96.0317C215.916 96.0317 216.509 96.1746 217.03 96.4603C217.559 96.7461 217.967 97.1536 218.253 97.6831C218.547 98.2041 218.694 98.805 218.694 99.4857ZM216.866 98.9815C216.858 98.5277 216.694 98.1663 216.374 97.8974C216.055 97.6201 215.664 97.4814 215.202 97.4814C214.765 97.4814 214.395 97.6159 214.093 97.8848C213.799 98.1453 213.618 98.5109 213.551 98.9815H216.866Z" fill="white"/>
<path fill-rule="evenodd" clip-rule="evenodd" d="M83.9453 94.2469L79.144 99.0482L79.9797 99.8838L84.781 95.0826L89.5823 99.8839L90.4179 99.0482L85.6166 94.2469L90.4189 89.4446L89.5832 88.609L84.781 93.4112L79.9787 88.609L79.1431 89.4447L83.9453 94.2469Z" fill="white"/>
<path fill-rule="evenodd" clip-rule="evenodd" d="M168.441 161.501C168.577 161.362 168.684 161.197 168.755 161.015C168.826 160.834 168.861 160.641 168.857 160.446C168.852 160.252 168.809 160.06 168.73 159.882C168.651 159.705 168.537 159.544 168.396 159.411C167.5 158.562 166.376 157.992 165.161 157.771C163.946 157.551 162.694 157.689 161.556 158.169C160.419 158.649 159.446 159.45 158.757 160.474C158.067 161.498 157.691 162.701 157.674 163.935C157.691 165.17 158.067 166.373 158.757 167.397C159.446 168.421 160.419 169.222 161.556 169.702C162.694 170.182 163.946 170.32 165.161 170.1C166.376 169.879 167.5 169.309 168.396 168.46C168.537 168.326 168.651 168.166 168.73 167.988C168.809 167.811 168.852 167.619 168.857 167.424C168.861 167.23 168.826 167.036 168.755 166.855C168.684 166.674 168.577 166.509 168.441 166.37C168.166 166.087 167.789 165.924 167.394 165.915C166.999 165.907 166.616 166.054 166.329 166.325C165.69 166.927 164.843 167.257 163.965 167.245C163.088 167.233 162.25 166.879 161.628 166.26C161.323 165.955 161.08 165.592 160.915 165.194C160.749 164.795 160.664 164.367 160.664 163.935C160.664 163.504 160.749 163.076 160.915 162.677C161.08 162.279 161.323 161.916 161.628 161.611C162.25 160.992 163.088 160.638 163.965 160.626C164.843 160.614 165.69 160.944 166.329 161.546C166.616 161.817 166.999 161.964 167.394 161.956C167.79 161.947 168.166 161.784 168.441 161.501V161.501ZM176.415 157.67C174.744 157.662 173.139 158.318 171.95 159.493C170.762 160.667 170.088 162.265 170.077 163.936C170.077 165.617 170.745 167.23 171.933 168.418C173.122 169.607 174.734 170.275 176.415 170.275C178.096 170.275 179.709 169.607 180.897 168.418C182.086 167.23 182.754 165.617 182.754 163.936C182.742 162.265 182.069 160.667 180.88 159.493C179.692 158.318 178.086 157.662 176.415 157.67ZM176.415 167.246C175.762 167.238 175.126 167.038 174.587 166.67C174.047 166.302 173.629 165.782 173.384 165.177C173.139 164.571 173.079 163.907 173.211 163.267C173.343 162.628 173.661 162.041 174.126 161.582C174.59 161.123 175.18 160.812 175.821 160.687C176.462 160.562 177.126 160.63 177.728 160.882C178.331 161.133 178.846 161.558 179.208 162.101C179.57 162.645 179.763 163.283 179.763 163.936C179.76 164.373 179.672 164.806 179.502 165.209C179.333 165.612 179.085 165.977 178.775 166.284C178.464 166.592 178.095 166.835 177.691 167C177.286 167.165 176.852 167.248 176.415 167.246ZM191.434 157.67C189.543 157.662 187.727 158.404 186.382 159.734C185.038 161.063 184.276 162.871 184.263 164.761C184.261 165.694 184.446 166.617 184.806 167.477C185.167 168.337 185.695 169.117 186.361 169.77C186.642 170.047 187.022 170.202 187.417 170.202C187.812 170.202 188.192 170.047 188.473 169.77C188.612 169.633 188.722 169.471 188.797 169.291C188.873 169.112 188.911 168.919 188.911 168.724C188.911 168.53 188.873 168.337 188.797 168.158C188.722 167.978 188.612 167.816 188.473 167.679C188.086 167.298 187.778 166.843 187.567 166.341C187.357 165.839 187.249 165.301 187.249 164.757C187.249 164.213 187.357 163.674 187.567 163.173C187.778 162.671 188.086 162.216 188.473 161.835C189.262 161.059 190.323 160.624 191.429 160.624C192.535 160.624 193.597 161.059 194.385 161.835C194.773 162.216 195.081 162.671 195.291 163.173C195.501 163.674 195.61 164.213 195.61 164.757C195.61 165.301 195.501 165.839 195.291 166.341C195.081 166.843 194.773 167.298 194.385 167.679C194.246 167.815 194.136 167.978 194.061 168.158C193.986 168.337 193.947 168.53 193.947 168.724C193.947 168.919 193.986 169.111 194.061 169.291C194.136 169.47 194.246 169.633 194.385 169.769C194.667 170.046 195.046 170.202 195.442 170.202C195.837 170.202 196.216 170.046 196.498 169.769C197.165 169.117 197.695 168.338 198.057 167.478C198.419 166.618 198.605 165.694 198.605 164.761C198.592 162.871 197.83 161.062 196.485 159.733C195.141 158.404 193.324 157.662 191.434 157.67ZM143.88 159.734C145.225 158.405 147.041 157.663 148.932 157.671C150.822 157.663 152.639 158.405 153.983 159.734C155.327 161.063 156.09 162.871 156.103 164.762C156.103 165.695 155.917 166.619 155.555 167.479C155.193 168.339 154.663 169.118 153.996 169.77C153.714 170.047 153.334 170.202 152.939 170.202C152.544 170.202 152.165 170.047 151.883 169.77C151.744 169.633 151.634 169.471 151.559 169.291C151.484 169.112 151.445 168.919 151.445 168.724C151.445 168.53 151.484 168.337 151.559 168.158C151.634 167.978 151.744 167.815 151.883 167.679C152.271 167.297 152.579 166.843 152.789 166.341C152.999 165.839 153.108 165.301 153.108 164.756C153.108 164.212 152.999 163.674 152.789 163.172C152.579 162.67 152.271 162.215 151.883 161.834C151.094 161.058 150.033 160.624 148.927 160.624C147.821 160.624 146.759 161.058 145.971 161.834C145.583 162.215 145.275 162.67 145.064 163.172C144.854 163.674 144.746 164.212 144.746 164.756C144.746 165.301 144.854 165.839 145.064 166.341C145.275 166.843 145.583 167.297 145.971 167.679C146.109 167.815 146.22 167.978 146.295 168.158C146.37 168.337 146.409 168.53 146.409 168.724C146.409 168.919 146.37 169.112 146.295 169.291C146.22 169.471 146.109 169.633 145.971 169.77C145.689 170.047 145.309 170.202 144.914 170.202C144.519 170.202 144.14 170.047 143.858 169.77C143.193 169.117 142.664 168.337 142.304 167.477C141.944 166.618 141.759 165.694 141.76 164.762C141.774 162.871 142.536 161.063 143.88 159.734ZM165.506 163.928C165.511 164.744 164.845 165.409 164.02 165.413C163.195 165.418 162.522 164.76 162.518 163.944C162.513 163.128 163.179 162.463 164.004 162.459C164.829 162.454 165.502 163.112 165.506 163.928Z" fill="#0073CE"/>
<rect x="100.003" y="474.323" width="140.191" height="28.7571" rx="14.3785" fill="white"/>
<path d="M137.942 488.553C137.942 487.895 138.089 487.307 138.383 486.789C138.684 486.265 139.089 485.86 139.601 485.572C140.118 485.278 140.697 485.131 141.336 485.131C142.083 485.131 142.738 485.323 143.301 485.706C143.863 486.09 144.256 486.62 144.48 487.297H142.936C142.783 486.978 142.566 486.738 142.285 486.579C142.01 486.419 141.69 486.339 141.326 486.339C140.936 486.339 140.588 486.432 140.281 486.617C139.981 486.796 139.744 487.051 139.572 487.384C139.406 487.716 139.323 488.106 139.323 488.553C139.323 488.994 139.406 489.384 139.572 489.723C139.744 490.055 139.981 490.314 140.281 490.499C140.588 490.678 140.936 490.768 141.326 490.768C141.69 490.768 142.01 490.688 142.285 490.528C142.566 490.362 142.783 490.119 142.936 489.799H144.48C144.256 490.483 143.863 491.017 143.301 491.4C142.745 491.777 142.09 491.966 141.336 491.966C140.697 491.966 140.118 491.822 139.601 491.534C139.089 491.24 138.684 490.835 138.383 490.317C138.089 489.799 137.942 489.211 137.942 488.553ZM147.984 491.994C147.473 491.994 147.013 491.883 146.604 491.659C146.195 491.429 145.872 491.106 145.635 490.691C145.405 490.275 145.29 489.796 145.29 489.253C145.29 488.71 145.409 488.23 145.645 487.815C145.888 487.4 146.217 487.08 146.632 486.857C147.048 486.626 147.511 486.511 148.022 486.511C148.534 486.511 148.997 486.626 149.412 486.857C149.828 487.08 150.154 487.4 150.39 487.815C150.633 488.23 150.754 488.71 150.754 489.253C150.754 489.796 150.63 490.275 150.38 490.691C150.138 491.106 149.805 491.429 149.383 491.659C148.968 491.883 148.502 491.994 147.984 491.994ZM147.984 490.825C148.227 490.825 148.454 490.768 148.665 490.652C148.882 490.531 149.054 490.352 149.182 490.116C149.31 489.879 149.374 489.592 149.374 489.253C149.374 488.748 149.24 488.361 148.971 488.093C148.709 487.818 148.387 487.681 148.003 487.681C147.62 487.681 147.297 487.818 147.035 488.093C146.779 488.361 146.652 488.748 146.652 489.253C146.652 489.758 146.776 490.148 147.025 490.422C147.281 490.691 147.601 490.825 147.984 490.825ZM158.334 486.521C158.985 486.521 159.509 486.722 159.906 487.125C160.308 487.521 160.51 488.077 160.51 488.793V491.908H159.168V488.975C159.168 488.56 159.062 488.243 158.851 488.026C158.64 487.802 158.353 487.691 157.989 487.691C157.624 487.691 157.333 487.802 157.116 488.026C156.905 488.243 156.8 488.56 156.8 488.975V491.908H155.458V488.975C155.458 488.56 155.352 488.243 155.142 488.026C154.931 487.802 154.643 487.691 154.279 487.691C153.908 487.691 153.614 487.802 153.397 488.026C153.186 488.243 153.081 488.56 153.081 488.975V491.908H151.739V486.598H153.081V487.24C153.253 487.016 153.474 486.841 153.742 486.713C154.017 486.585 154.317 486.521 154.643 486.521C155.058 486.521 155.429 486.611 155.755 486.789C156.081 486.962 156.333 487.211 156.512 487.537C156.685 487.23 156.934 486.984 157.26 486.799C157.592 486.614 157.95 486.521 158.334 486.521ZM163.125 487.365C163.298 487.122 163.534 486.92 163.834 486.761C164.141 486.595 164.489 486.511 164.879 486.511C165.333 486.511 165.742 486.623 166.106 486.847C166.477 487.071 166.768 487.39 166.978 487.806C167.196 488.215 167.304 488.691 167.304 489.234C167.304 489.777 167.196 490.259 166.978 490.681C166.768 491.097 166.477 491.419 166.106 491.649C165.742 491.879 165.333 491.994 164.879 491.994C164.489 491.994 164.144 491.915 163.844 491.755C163.55 491.595 163.31 491.394 163.125 491.151V494.439H161.783V486.598H163.125V487.365ZM165.934 489.234C165.934 488.914 165.867 488.639 165.732 488.409C165.605 488.173 165.432 487.994 165.215 487.873C165.004 487.751 164.774 487.691 164.525 487.691C164.282 487.691 164.052 487.754 163.834 487.882C163.623 488.004 163.451 488.183 163.317 488.419C163.189 488.655 163.125 488.933 163.125 489.253C163.125 489.572 163.189 489.85 163.317 490.087C163.451 490.323 163.623 490.505 163.834 490.633C164.052 490.755 164.282 490.815 164.525 490.815C164.774 490.815 165.004 490.752 165.215 490.624C165.432 490.496 165.605 490.314 165.732 490.077C165.867 489.841 165.934 489.56 165.934 489.234ZM167.934 489.234C167.934 488.697 168.04 488.221 168.251 487.806C168.468 487.39 168.759 487.071 169.123 486.847C169.494 486.623 169.906 486.511 170.36 486.511C170.756 486.511 171.101 486.591 171.395 486.751C171.695 486.911 171.935 487.112 172.114 487.355V486.598H173.465V491.908H172.114V491.132C171.941 491.381 171.702 491.589 171.395 491.755C171.095 491.915 170.746 491.994 170.35 491.994C169.903 491.994 169.494 491.879 169.123 491.649C168.759 491.419 168.468 491.097 168.251 490.681C168.04 490.259 167.934 489.777 167.934 489.234ZM172.114 489.253C172.114 488.927 172.05 488.649 171.922 488.419C171.794 488.183 171.622 488.004 171.404 487.882C171.187 487.754 170.954 487.691 170.705 487.691C170.456 487.691 170.225 487.751 170.015 487.873C169.804 487.994 169.631 488.173 169.497 488.409C169.369 488.639 169.305 488.914 169.305 489.234C169.305 489.553 169.369 489.835 169.497 490.077C169.631 490.314 169.804 490.496 170.015 490.624C170.232 490.752 170.462 490.815 170.705 490.815C170.954 490.815 171.187 490.755 171.404 490.633C171.622 490.505 171.794 490.327 171.922 490.097C172.05 489.86 172.114 489.579 172.114 489.253ZM176.118 487.422C176.291 487.141 176.514 486.92 176.789 486.761C177.07 486.601 177.39 486.521 177.748 486.521V487.93H177.393C176.971 487.93 176.652 488.029 176.434 488.227C176.224 488.425 176.118 488.77 176.118 489.263V491.908H174.776V486.598H176.118V487.422ZM180.214 487.7V490.269C180.214 490.448 180.256 490.579 180.339 490.662C180.428 490.739 180.575 490.777 180.78 490.777H181.403V491.908H180.559C179.428 491.908 178.862 491.359 178.862 490.259V487.7H178.23V486.598H178.862V485.284H180.214V486.598H181.403V487.7H180.214ZM183.048 485.965C182.812 485.965 182.614 485.892 182.454 485.745C182.301 485.591 182.224 485.403 182.224 485.179C182.224 484.955 182.301 484.77 182.454 484.623C182.614 484.47 182.812 484.393 183.048 484.393C183.285 484.393 183.48 484.47 183.633 484.623C183.793 484.77 183.873 484.955 183.873 485.179C183.873 485.403 183.793 485.591 183.633 485.745C183.48 485.892 183.285 485.965 183.048 485.965ZM183.71 486.598V491.908H182.368V486.598H183.71ZM186.378 484.815V491.908H185.036V484.815H186.378ZM190.694 486.521C191.097 486.521 191.455 486.611 191.768 486.789C192.081 486.962 192.324 487.221 192.497 487.566C192.675 487.905 192.765 488.314 192.765 488.793V491.908H191.423V488.975C191.423 488.553 191.317 488.23 191.107 488.007C190.896 487.777 190.608 487.662 190.244 487.662C189.873 487.662 189.579 487.777 189.362 488.007C189.151 488.23 189.046 488.553 189.046 488.975V491.908H187.704V484.815H189.046V487.259C189.218 487.029 189.448 486.85 189.736 486.722C190.023 486.588 190.343 486.521 190.694 486.521ZM193.696 489.234C193.696 488.697 193.801 488.221 194.012 487.806C194.23 487.39 194.52 487.071 194.885 486.847C195.255 486.623 195.667 486.511 196.121 486.511C196.517 486.511 196.862 486.591 197.156 486.751C197.457 486.911 197.696 487.112 197.875 487.355V486.598H199.227V491.908H197.875V491.132C197.703 491.381 197.463 491.589 197.156 491.755C196.856 491.915 196.508 491.994 196.112 491.994C195.664 491.994 195.255 491.879 194.885 491.649C194.52 491.419 194.23 491.097 194.012 490.681C193.801 490.259 193.696 489.777 193.696 489.234ZM197.875 489.253C197.875 488.927 197.811 488.649 197.684 488.419C197.556 488.183 197.383 488.004 197.166 487.882C196.949 487.754 196.715 487.691 196.466 487.691C196.217 487.691 195.987 487.751 195.776 487.873C195.565 487.994 195.393 488.173 195.258 488.409C195.131 488.639 195.067 488.914 195.067 489.234C195.067 489.553 195.131 489.835 195.258 490.077C195.393 490.314 195.565 490.496 195.776 490.624C195.993 490.752 196.223 490.815 196.466 490.815C196.715 490.815 196.949 490.755 197.166 490.633C197.383 490.505 197.556 490.327 197.684 490.097C197.811 489.86 197.875 489.579 197.875 489.253ZM201.88 487.422C202.052 487.141 202.276 486.92 202.551 486.761C202.832 486.601 203.151 486.521 203.509 486.521V487.93H203.155C202.733 487.93 202.413 488.029 202.196 488.227C201.985 488.425 201.88 488.77 201.88 489.263V491.908H200.538V486.598H201.88V487.422Z" fill="#01A5F0"/>
<path d="M118.872 190.369C119.875 190.369 120.744 189.944 121.321 189.263L120.697 188.733C120.262 189.244 119.6 189.575 118.872 189.575C117.502 189.575 116.424 188.421 116.424 187.032C116.424 185.632 117.502 184.488 118.872 184.488C119.6 184.488 120.262 184.819 120.697 185.33L121.321 184.8C120.744 184.12 119.875 183.694 118.872 183.694C117.029 183.694 115.563 185.188 115.563 187.032C115.563 188.875 117.029 190.369 118.872 190.369ZM124.314 190.369C125.571 190.369 126.63 189.452 126.63 188.053C126.63 186.653 125.571 185.765 124.314 185.765C123.056 185.765 122.007 186.653 122.007 188.053C122.007 189.452 123.056 190.369 124.314 190.369ZM124.314 189.594C123.51 189.594 122.839 188.97 122.839 188.053C122.839 187.145 123.51 186.54 124.314 186.54C125.127 186.54 125.808 187.145 125.808 188.053C125.808 188.97 125.127 189.594 124.314 189.594ZM133.013 185.765C132.569 185.765 131.869 185.897 131.472 186.682C131.217 186.096 130.659 185.765 130.016 185.765C129.392 185.765 128.825 186.058 128.598 186.531V185.859H127.775V190.274H128.598V187.883C128.598 186.947 129.222 186.559 129.846 186.559C130.432 186.559 130.839 187.022 130.839 187.769V190.274H131.661V188.024L131.671 188.062C131.595 187.211 132.068 186.549 132.852 186.559C133.495 186.559 133.902 187.032 133.902 187.769V190.274H134.724V187.722C134.724 186.483 134.119 185.765 133.013 185.765ZM138.486 185.765C137.853 185.765 137.21 186.048 136.917 186.559V185.859H136.094V192.421H136.917V189.584C137.21 190.104 137.834 190.369 138.496 190.369C139.706 190.369 140.698 189.471 140.698 188.072C140.698 186.682 139.696 185.765 138.486 185.765ZM138.41 189.594C137.692 189.594 136.917 189.036 136.917 188.081C136.917 187.136 137.626 186.54 138.41 186.54C139.224 186.54 139.866 187.202 139.866 188.081C139.866 188.97 139.224 189.594 138.41 189.594ZM143.917 185.765C143.33 185.765 142.905 186.086 142.678 186.861V185.859H141.846V190.274H142.678V188.658C142.678 187.495 143.028 186.559 143.907 186.559C144.077 186.559 144.314 186.597 144.55 186.71L144.682 185.935C144.55 185.85 144.229 185.765 143.917 185.765ZM147.377 190.369C148.635 190.369 149.694 189.452 149.694 188.053C149.694 186.653 148.635 185.765 147.377 185.765C146.12 185.765 145.071 186.653 145.071 188.053C145.071 189.452 146.12 190.369 147.377 190.369ZM147.377 189.594C146.574 189.594 145.903 188.97 145.903 188.053C145.903 187.145 146.574 186.54 147.377 186.54C148.19 186.54 148.871 187.145 148.871 188.053C148.871 188.97 148.19 189.594 147.377 189.594ZM153.744 185.859L152.392 189.225L151.031 185.859H150.151L151.986 190.274H152.789L154.633 185.859H153.744ZM158.87 185.859V186.549C158.577 186.029 157.953 185.765 157.291 185.765C156.081 185.765 155.088 186.663 155.088 188.062C155.088 189.452 156.09 190.369 157.301 190.369C157.934 190.369 158.577 190.085 158.87 189.575V190.274H159.693V185.859H158.87ZM157.367 189.594C156.563 189.594 155.92 188.932 155.92 188.053C155.92 187.164 156.563 186.54 157.367 186.54C158.095 186.54 158.87 187.098 158.87 188.053C158.87 188.998 158.161 189.594 157.367 189.594ZM163.421 185.765C162.939 185.765 162.221 185.992 161.956 186.531V185.859H161.133V190.274H161.956V187.883C161.956 186.928 162.693 186.578 163.308 186.578C163.922 186.578 164.376 187.032 164.376 187.769V190.274H165.199V187.722C165.208 186.483 164.518 185.765 163.421 185.765ZM168.634 185.859H167.679V184.186H166.856V185.859H166.062V186.568H166.856V190.274H167.679V186.568H168.634V185.859ZM173.621 188.053C173.621 186.653 172.685 185.765 171.428 185.765C170.17 185.765 169.159 186.653 169.159 188.053C169.159 189.452 170.17 190.369 171.428 190.369C172.279 190.369 173.073 189.972 173.461 189.206L172.742 188.922C172.496 189.367 171.995 189.594 171.456 189.594C170.7 189.594 170.133 189.206 170.01 188.421H173.602C173.612 188.299 173.621 188.176 173.621 188.053ZM170.019 187.712C170.152 186.918 170.681 186.54 171.428 186.54C172.156 186.54 172.695 186.956 172.799 187.712H170.019ZM177.04 188.469H180.32V187.675H177.04V188.469ZM185.631 189.112L187.087 187.438C187.484 186.994 187.767 186.464 187.767 185.869C187.767 184.744 186.964 183.997 185.725 183.997C184.487 183.997 183.768 184.753 183.617 185.859L184.742 186.048C184.818 185.509 185.13 185.15 185.678 185.15C186.16 185.15 186.501 185.443 186.501 185.859C186.501 186.067 186.33 186.389 186.075 186.701L183.655 189.603V190.274H187.824V189.112H185.631ZM191.115 190.36C192.911 190.36 193.403 188.951 193.403 187.192C193.403 185.405 192.911 183.997 191.115 183.997C189.309 183.997 188.808 185.405 188.808 187.192C188.808 188.951 189.309 190.36 191.115 190.36ZM191.115 189.206C190.311 189.206 190.065 188.317 190.065 187.192C190.065 186.048 190.311 185.15 191.115 185.15C191.909 185.15 192.145 186.048 192.145 187.192C192.145 188.317 191.909 189.206 191.115 189.206ZM196.304 189.112L197.76 187.438C198.157 186.994 198.441 186.464 198.441 185.869C198.441 184.744 197.637 183.997 196.398 183.997C195.16 183.997 194.441 184.753 194.29 185.859L195.415 186.048C195.491 185.509 195.803 185.15 196.351 185.15C196.833 185.15 197.174 185.443 197.174 185.859C197.174 186.067 197.003 186.389 196.748 186.701L194.328 189.603V190.274H198.497V189.112H196.304ZM201.731 183.997C200.351 183.997 199.443 184.895 199.443 186.077C199.443 187.155 200.275 188.072 201.533 188.072C202.128 188.072 202.573 187.854 202.875 187.552C202.828 188.516 202.28 189.206 201.504 189.206C201.098 189.206 200.72 188.998 200.521 188.582L199.519 189.13C199.897 189.972 200.701 190.36 201.514 190.36C203.253 190.36 204.133 188.8 204.133 186.965C204.133 185.207 203.178 183.997 201.731 183.997ZM201.703 187.022C201.117 187.013 200.701 186.625 200.701 186.086C200.701 185.538 201.126 185.15 201.741 185.15C202.346 185.16 202.771 185.557 202.771 186.105C202.762 186.644 202.317 187.022 201.703 187.022ZM209.879 187.987H208.933V184.082H208.196L204.688 188.724V189.093H207.676V190.274H208.933V189.093H209.879V187.987ZM206.456 187.987L207.676 186.351V187.987H206.456ZM212.986 183.997C211.606 183.997 210.698 184.895 210.698 186.077C210.698 187.155 211.53 188.072 212.787 188.072C213.383 188.072 213.827 187.854 214.13 187.552C214.083 188.516 213.534 189.206 212.759 189.206C212.353 189.206 211.974 188.998 211.776 188.582L210.774 189.13C211.152 189.972 211.955 190.36 212.769 190.36C214.508 190.36 215.387 188.8 215.387 186.965C215.387 185.207 214.433 183.997 212.986 183.997ZM212.958 187.022C212.371 187.013 211.955 186.625 211.955 186.086C211.955 185.538 212.381 185.15 212.995 185.15C213.601 185.16 214.026 185.557 214.026 186.105C214.017 186.644 213.572 187.022 212.958 187.022ZM218.666 183.997L216.094 185.065V186.228L217.522 185.68V190.274H218.77V183.997H218.666ZM222.359 190.36C224.155 190.36 224.647 188.951 224.647 187.192C224.647 185.405 224.155 183.997 222.359 183.997C220.553 183.997 220.052 185.405 220.052 187.192C220.052 188.951 220.553 190.36 222.359 190.36ZM222.359 189.206C221.555 189.206 221.309 188.317 221.309 187.192C221.309 186.048 221.555 185.15 222.359 185.15C223.153 185.15 223.389 186.048 223.389 187.192C223.389 188.317 223.153 189.206 222.359 189.206Z" fill="#0073CE"/>
<path opacity="0.3" d="M92.5188 205.335H247.334" stroke="#855B35" stroke-width="0.787865"/>
<path opacity="0.3" d="M92.5188 312.484H247.334" stroke="#855B35" stroke-width="0.787865"/>
<path d="M135.977 233.213H138.049C139.696 233.213 140.838 232.173 140.838 230.59C140.838 229.006 139.696 227.958 138.049 227.958H135.977V233.213ZM137.096 232.228V228.943H138.049C139.128 228.943 139.696 229.66 139.696 230.59C139.696 231.48 139.089 232.228 138.049 232.228H137.096ZM141.632 233.213H145.351V232.244H142.751V231.023H145.296V230.062H142.751V228.919H145.351V227.958H141.632V233.213ZM147.989 230.59C147.989 232.244 149.25 233.316 150.786 233.316C151.739 233.316 152.488 232.922 153.024 232.323V230.314H150.518V231.275H151.921V231.913C151.692 232.118 151.267 232.315 150.786 232.315C149.833 232.315 149.139 231.582 149.139 230.59C149.139 229.597 149.833 228.864 150.786 228.864C151.338 228.864 151.787 229.156 152.031 229.526L152.961 229.022C152.559 228.399 151.873 227.871 150.786 227.871C149.25 227.871 147.989 228.927 147.989 230.59ZM153.912 233.213H155.03V227.958H153.912V233.213ZM156.074 233.213H159.414V232.228H157.192V227.958H156.074V233.213ZM160.198 233.213H163.05C164.05 233.213 164.578 232.583 164.578 231.795C164.578 231.133 164.129 230.59 163.57 230.503C164.066 230.401 164.476 229.959 164.476 229.298C164.476 228.596 163.964 227.958 162.963 227.958H160.198V233.213ZM161.316 230.07V228.911H162.719C163.097 228.911 163.333 229.164 163.333 229.487C163.333 229.825 163.097 230.07 162.719 230.07H161.316ZM161.316 232.26V231.023H162.758C163.199 231.023 163.436 231.307 163.436 231.637C163.436 232.016 163.184 232.26 162.758 232.26H161.316ZM165.422 233.213H169.141V232.244H166.541V231.023H169.085V230.062H166.541V228.919H169.141V227.958H165.422V233.213ZM172.985 233.213H174.27L173.088 231.212C173.655 231.078 174.238 230.582 174.238 229.652C174.238 228.675 173.568 227.958 172.473 227.958H170.015V233.213H171.134V231.33H171.953L172.985 233.213ZM173.096 229.644C173.096 230.085 172.757 230.369 172.308 230.369H171.134V228.919H172.308C172.757 228.919 173.096 229.203 173.096 229.644ZM176.214 233.213H177.341V228.943H178.869V227.958H174.678V228.943H176.214V233.213ZM179.142 230.59C179.142 232.173 180.3 233.308 181.884 233.308C183.475 233.308 184.634 232.173 184.634 230.59C184.634 229.006 183.475 227.871 181.884 227.871C180.3 227.871 179.142 229.006 179.142 230.59ZM183.483 230.59C183.483 231.567 182.853 232.315 181.884 232.315C180.915 232.315 180.292 231.567 180.292 230.59C180.292 229.605 180.915 228.864 181.884 228.864C182.853 228.864 183.483 229.605 183.483 230.59ZM187.434 233.213H188.553V231.33H189.893C191.027 231.33 191.657 230.566 191.657 229.652C191.657 228.73 191.035 227.958 189.893 227.958H187.434V233.213ZM190.515 229.644C190.515 230.085 190.184 230.369 189.743 230.369H188.553V228.919H189.743C190.184 228.919 190.515 229.211 190.515 229.644ZM195.321 233.213H196.605L195.424 231.212C195.991 231.078 196.574 230.582 196.574 229.652C196.574 228.675 195.904 227.958 194.809 227.958H192.351V233.213H193.47V231.33H194.289L195.321 233.213ZM195.431 229.644C195.431 230.085 195.093 230.369 194.644 230.369H193.47V228.919H194.644C195.093 228.919 195.431 229.203 195.431 229.644ZM201.093 233.213H202.314L200.289 227.958H198.887L196.854 233.213H198.083L198.414 232.307H200.762L201.093 233.213ZM199.588 228.927L200.455 231.338H198.714L199.588 228.927ZM202.799 233.213H204.871C206.518 233.213 207.66 232.173 207.66 230.59C207.66 229.006 206.518 227.958 204.871 227.958H202.799V233.213ZM203.918 232.228V228.943H204.871C205.951 228.943 206.518 229.66 206.518 230.59C206.518 231.48 205.911 232.228 204.871 232.228H203.918ZM208.202 230.59C208.202 232.173 209.36 233.308 210.944 233.308C212.536 233.308 213.694 232.173 213.694 230.59C213.694 229.006 212.536 227.871 210.944 227.871C209.36 227.871 208.202 229.006 208.202 230.59ZM212.543 230.59C212.543 231.567 211.913 232.315 210.944 232.315C209.975 232.315 209.353 231.567 209.353 230.59C209.353 229.605 209.975 228.864 210.944 228.864C211.913 228.864 212.543 229.605 212.543 230.59Z" fill="#855B35"/>
<path d="M135.977 340.363H137.096V338.48H138.435C139.57 338.48 140.2 337.716 140.2 336.802C140.2 335.88 139.578 335.108 138.435 335.108H135.977V340.363ZM139.058 336.794C139.058 337.235 138.727 337.519 138.285 337.519H137.096V336.069H138.285C138.727 336.069 139.058 336.36 139.058 336.794ZM143.988 340.363H145.209L143.184 335.108H141.782L139.749 340.363H140.978L141.309 339.457H143.657L143.988 340.363ZM142.483 336.077L143.35 338.488H141.609L142.483 336.077ZM148.665 340.363H149.949L148.767 338.362C149.334 338.228 149.917 337.731 149.917 336.802C149.917 335.825 149.248 335.108 148.153 335.108H145.695V340.363H146.813V338.48H147.633L148.665 340.363ZM148.775 336.794C148.775 337.235 148.436 337.519 147.987 337.519H146.813V336.069H147.987C148.436 336.069 148.775 336.353 148.775 336.794ZM154.437 340.363H155.658L153.633 335.108H152.23L150.198 340.363H151.427L151.758 339.457H154.106L154.437 340.363ZM152.932 336.077L153.798 338.488H152.057L152.932 336.077ZM160.664 340.457C161.862 340.457 162.524 339.819 162.902 339.165L161.941 338.7C161.72 339.134 161.247 339.465 160.664 339.465C159.75 339.465 159.057 338.732 159.057 337.739C159.057 336.746 159.75 336.014 160.664 336.014C161.247 336.014 161.72 336.353 161.941 336.778L162.902 336.305C162.531 335.651 161.862 335.021 160.664 335.021C159.128 335.021 157.907 336.124 157.907 337.739C157.907 339.354 159.128 340.457 160.664 340.457ZM167.193 340.363H168.414L166.39 335.108H164.987L162.954 340.363H164.183L164.514 339.457H166.862L167.193 340.363ZM165.688 336.077L166.555 338.488H164.814L165.688 336.077ZM171.87 340.363H173.154L171.972 338.362C172.54 338.228 173.123 337.731 173.123 336.802C173.123 335.825 172.453 335.108 171.358 335.108H168.9V340.363H170.018V338.48H170.838L171.87 340.363ZM171.98 336.794C171.98 337.235 171.641 337.519 171.192 337.519H170.018V336.069H171.192C171.641 336.069 171.98 336.353 171.98 336.794ZM173.71 337.739C173.71 339.323 174.868 340.457 176.452 340.457C178.043 340.457 179.202 339.323 179.202 337.739C179.202 336.156 178.043 335.021 176.452 335.021C174.868 335.021 173.71 336.156 173.71 337.739ZM178.051 337.739C178.051 338.716 177.421 339.465 176.452 339.465C175.483 339.465 174.86 338.716 174.86 337.739C174.86 336.754 175.483 336.014 176.452 336.014C177.421 336.014 178.051 336.754 178.051 337.739ZM179.987 340.363H183.327V339.378H181.105V335.108H179.987V340.363ZM189.806 340.363H191.027L189.002 335.108H187.6L185.567 340.363H186.796L187.127 339.457H189.475L189.806 340.363ZM188.301 336.077L189.168 338.488H187.426L188.301 336.077ZM194.482 340.363H195.767L194.585 338.362C195.152 338.228 195.735 337.731 195.735 336.802C195.735 335.825 195.066 335.108 193.97 335.108H191.512V340.363H192.631V338.48H193.45L194.482 340.363ZM194.593 336.794C194.593 337.235 194.254 337.519 193.805 337.519H192.631V336.069H193.805C194.254 336.069 194.593 336.353 194.593 336.794ZM200.254 340.363H201.475L199.451 335.108H198.048L196.015 340.363H197.245L197.575 339.457H199.923L200.254 340.363ZM198.749 336.077L199.616 338.488H197.875L198.749 336.077ZM204.378 334.667L205.654 333.532H204.732L203.677 334.667H204.378ZM201.699 338.267C201.699 339.559 202.448 340.457 204.055 340.457C205.646 340.457 206.395 339.567 206.395 338.259V335.108H205.26V338.228C205.26 338.96 204.858 339.465 204.055 339.465C203.235 339.465 202.834 338.96 202.834 338.228V335.108H201.699V338.267ZM206.751 339.945C207.129 340.316 207.633 340.457 208.161 340.457C209.24 340.457 210.012 339.882 210.012 338.637V335.108H208.894V338.622C208.894 339.134 208.571 339.465 208.074 339.465C207.712 339.465 207.444 339.283 207.239 339.086L206.751 339.945ZM210.803 337.739C210.803 339.323 211.961 340.457 213.545 340.457C215.136 340.457 216.294 339.323 216.294 337.739C216.294 336.156 215.136 335.021 213.545 335.021C211.961 335.021 210.803 336.156 210.803 337.739ZM215.144 337.739C215.144 338.716 214.514 339.465 213.545 339.465C212.576 339.465 211.953 338.716 211.953 337.739C211.953 336.754 212.576 336.014 213.545 336.014C214.514 336.014 215.144 336.754 215.144 337.739Z" fill="#855B35"/>
<path d="M94.7012 261.364H95.5127L97.632 256.109H96.8836L95.1109 260.647L93.3382 256.109H92.5897L94.7012 261.364ZM100.175 261.364H100.766V258.748C100.766 257.827 100.096 257.464 99.2923 257.464C98.6699 257.464 98.1814 257.669 97.7717 258.094L98.0475 258.504C98.3862 258.142 98.7565 257.976 99.2135 257.976C99.765 257.976 100.175 258.268 100.175 258.78V259.465C99.8674 259.111 99.4341 258.945 98.9141 258.945C98.2681 258.945 97.5826 259.347 97.5826 260.198C97.5826 261.025 98.2681 261.459 98.9141 261.459C99.4262 261.459 99.8595 261.277 100.175 260.931V261.364ZM100.175 260.561C99.9462 260.876 99.5444 261.033 99.1268 261.033C98.5753 261.033 98.1893 260.687 98.1893 260.206C98.1893 259.717 98.5753 259.371 99.1268 259.371C99.5444 259.371 99.9462 259.528 100.175 259.844V260.561ZM101.95 261.364H102.541V256.109H101.95V261.364ZM105.382 261.459C106.54 261.459 107.265 260.561 107.265 259.458C107.265 258.354 106.54 257.464 105.382 257.464C104.224 257.464 103.499 258.354 103.499 259.458C103.499 260.561 104.224 261.459 105.382 261.459ZM105.382 260.931C104.571 260.931 104.114 260.237 104.114 259.458C104.114 258.685 104.571 257.992 105.382 257.992C106.194 257.992 106.643 258.685 106.643 259.458C106.643 260.237 106.194 260.931 105.382 260.931ZM108.228 261.364H108.819V258.67C108.993 258.362 109.489 258.063 109.851 258.063C109.946 258.063 110.017 258.071 110.088 258.087V257.48C109.568 257.48 109.127 257.771 108.819 258.173V257.559H108.228V261.364ZM93.1333 277.364H95.5284C96.4896 277.364 97.049 276.789 97.049 275.946C97.049 275.316 96.5842 274.741 96.0248 274.654C96.5054 274.551 96.9466 274.11 96.9466 273.448C96.9466 272.661 96.3872 272.109 95.4733 272.109H93.1333V277.364ZM93.7873 274.386V272.692H95.363C95.9539 272.692 96.269 273.07 96.269 273.543C96.269 274.024 95.9539 274.386 95.363 274.386H93.7873ZM93.7873 276.781V274.969H95.3945C96.0406 274.969 96.3715 275.394 96.3715 275.875C96.3715 276.434 96.009 276.781 95.3945 276.781H93.7873ZM100.444 277.364H101.035V274.748C101.035 273.827 100.365 273.464 99.5616 273.464C98.9392 273.464 98.4507 273.669 98.041 274.094L98.3167 274.504C98.6555 274.142 99.0258 273.976 99.4828 273.976C100.034 273.976 100.444 274.268 100.444 274.78V275.465C100.137 275.111 99.7034 274.945 99.1834 274.945C98.5373 274.945 97.8519 275.347 97.8519 276.198C97.8519 277.025 98.5373 277.459 99.1834 277.459C99.6955 277.459 100.129 277.277 100.444 276.931V277.364ZM100.444 276.561C100.215 276.876 99.8137 277.033 99.3961 277.033C98.8446 277.033 98.4586 276.687 98.4586 276.206C98.4586 275.717 98.8446 275.371 99.3961 275.371C99.8137 275.371 100.215 275.528 100.444 275.844V276.561ZM104.788 277.364H105.379V274.693C105.379 273.866 104.961 273.464 104.165 273.464C103.598 273.464 103.078 273.795 102.81 274.11V273.559H102.219V277.364H102.81V274.583C103.031 274.276 103.472 273.992 103.937 273.992C104.449 273.992 104.788 274.205 104.788 274.874V277.364ZM106.338 275.458C106.338 276.592 107.102 277.459 108.237 277.459C108.93 277.459 109.34 277.175 109.631 276.797L109.238 276.434C108.985 276.773 108.662 276.931 108.268 276.931C107.457 276.931 106.953 276.301 106.953 275.458C106.953 274.614 107.457 273.992 108.268 273.992C108.662 273.992 108.985 274.142 109.238 274.488L109.631 274.126C109.34 273.748 108.93 273.464 108.237 273.464C107.102 273.464 106.338 274.331 106.338 275.458ZM112.122 277.459C113.28 277.459 114.005 276.561 114.005 275.458C114.005 274.354 113.28 273.464 112.122 273.464C110.964 273.464 110.239 274.354 110.239 275.458C110.239 276.561 110.964 277.459 112.122 277.459ZM112.122 276.931C111.311 276.931 110.854 276.237 110.854 275.458C110.854 274.685 111.311 273.992 112.122 273.992C112.934 273.992 113.383 274.685 113.383 275.458C113.383 276.237 112.934 276.931 112.122 276.931ZM114.85 273.937C114.85 274.173 115.047 274.37 115.283 274.37C115.52 274.37 115.717 274.173 115.717 273.937C115.717 273.701 115.52 273.504 115.283 273.504C115.047 273.504 114.85 273.701 114.85 273.937ZM114.85 277.01C114.85 277.246 115.047 277.443 115.283 277.443C115.52 277.443 115.717 277.246 115.717 277.01C115.717 276.773 115.52 276.576 115.283 276.576C115.047 276.576 114.85 276.773 114.85 277.01ZM96.9072 293.364H97.632L95.5127 288.109H94.7012L92.5897 293.364H93.3145L93.7794 292.198H96.4424L96.9072 293.364ZM95.1109 288.692L96.2454 291.615H93.9685L95.1109 288.692ZM98.2876 294.341C98.7366 294.782 99.1779 294.908 99.8239 294.908C100.754 294.908 101.636 294.514 101.636 293.254V289.559H101.045V290.134C100.738 289.716 100.281 289.464 99.7688 289.464C98.7682 289.464 98.0748 290.221 98.0748 291.442C98.0748 292.671 98.776 293.411 99.7688 293.411C100.305 293.411 100.769 293.12 101.045 292.734V293.277C101.045 294.113 100.454 294.42 99.8239 294.42C99.2803 294.42 98.9021 294.278 98.587 293.9L98.2876 294.341ZM101.045 292.269C100.84 292.6 100.383 292.891 99.9106 292.891C99.1463 292.891 98.6894 292.277 98.6894 291.442C98.6894 290.599 99.1463 289.992 99.9106 289.992C100.383 289.992 100.84 290.276 101.045 290.607V292.269ZM105.12 288.984H105.522L104.75 287.849H104.183L103.434 288.984H103.836L104.466 288.148L105.12 288.984ZM102.599 291.458C102.599 292.647 103.41 293.459 104.537 293.459C105.159 293.459 105.672 293.254 106.05 292.876L105.766 292.49C105.467 292.797 105.026 292.97 104.592 292.97C103.773 292.97 103.269 292.371 103.221 291.654H106.302V291.505C106.302 290.362 105.624 289.464 104.474 289.464C103.387 289.464 102.599 290.354 102.599 291.458ZM104.466 289.953C105.333 289.953 105.711 290.654 105.719 291.221H103.221C103.253 290.638 103.655 289.953 104.466 289.953ZM109.827 293.364H110.418V290.693C110.418 289.866 110.001 289.464 109.205 289.464C108.638 289.464 108.118 289.795 107.85 290.11V289.559H107.259V293.364H107.85V290.583C108.07 290.276 108.512 289.992 108.976 289.992C109.489 289.992 109.827 290.205 109.827 290.874V293.364ZM111.378 291.458C111.378 292.592 112.142 293.459 113.277 293.459C113.97 293.459 114.38 293.175 114.671 292.797L114.277 292.434C114.025 292.773 113.702 292.931 113.308 292.931C112.497 292.931 111.992 292.301 111.992 291.458C111.992 290.614 112.497 289.992 113.308 289.992C113.702 289.992 114.025 290.142 114.277 290.488L114.671 290.126C114.38 289.748 113.97 289.464 113.277 289.464C112.142 289.464 111.378 290.331 111.378 291.458ZM115.791 288.921C116.011 288.921 116.193 288.739 116.193 288.519C116.193 288.298 116.011 288.125 115.791 288.125C115.578 288.125 115.397 288.298 115.397 288.519C115.397 288.739 115.578 288.921 115.791 288.921ZM115.499 293.364H116.09V289.559H115.499V293.364ZM119.648 293.364H120.239V290.748C120.239 289.827 119.569 289.464 118.766 289.464C118.143 289.464 117.655 289.669 117.245 290.094L117.521 290.504C117.86 290.142 118.23 289.976 118.687 289.976C119.238 289.976 119.648 290.268 119.648 290.78V291.465C119.341 291.111 118.908 290.945 118.388 290.945C117.742 290.945 117.056 291.347 117.056 292.198C117.056 293.025 117.742 293.459 118.388 293.459C118.9 293.459 119.333 293.277 119.648 292.931V293.364ZM119.648 292.561C119.42 292.876 119.018 293.033 118.6 293.033C118.049 293.033 117.663 292.687 117.663 292.206C117.663 291.717 118.049 291.371 118.6 291.371C119.018 291.371 119.42 291.528 119.648 291.844V292.561ZM121.305 289.937C121.305 290.173 121.502 290.37 121.739 290.37C121.975 290.37 122.172 290.173 122.172 289.937C122.172 289.701 121.975 289.504 121.739 289.504C121.502 289.504 121.305 289.701 121.305 289.937ZM121.305 293.01C121.305 293.246 121.502 293.443 121.739 293.443C121.975 293.443 122.172 293.246 122.172 293.01C122.172 292.773 121.975 292.576 121.739 292.576C121.502 292.576 121.305 292.773 121.305 293.01Z" fill="#855B35"/>
<path d="M95.9931 367.426C96.9465 367.426 97.5768 366.985 98.018 366.386L97.4586 366.079C97.1592 366.528 96.6156 366.843 95.9931 366.843C94.8665 366.843 93.992 365.953 93.992 364.708C93.992 363.456 94.8665 362.573 95.9931 362.573C96.6156 362.573 97.1592 362.896 97.4586 363.337L98.0101 363.03C97.5925 362.439 96.9465 361.99 95.9931 361.99C94.5041 361.99 93.3144 363.093 93.3144 364.708C93.3144 366.323 94.5041 367.426 95.9931 367.426ZM98.8514 367.332H99.5053V365.244H100.963C102.003 365.244 102.609 364.519 102.609 363.66C102.609 362.802 102.019 362.077 100.963 362.077H98.8514V367.332ZM101.932 363.66C101.932 364.251 101.506 364.661 100.884 364.661H99.5053V362.66H100.884C101.506 362.66 101.932 363.07 101.932 363.66ZM103.475 367.332H104.129V364.937H106.863V364.354H104.129V362.66H106.918V362.077H103.475V367.332ZM107.665 363.905C107.665 364.141 107.862 364.338 108.099 364.338C108.335 364.338 108.532 364.141 108.532 363.905C108.532 363.668 108.335 363.471 108.099 363.471C107.862 363.471 107.665 363.668 107.665 363.905ZM107.665 366.977C107.665 367.214 107.862 367.411 108.099 367.411C108.335 367.411 108.532 367.214 108.532 366.977C108.532 366.741 108.335 366.544 108.099 366.544C107.862 366.544 107.665 366.741 107.665 366.977ZM93.5271 383.332H95.9222C96.8834 383.332 97.4428 382.757 97.4428 381.914C97.4428 381.283 96.978 380.708 96.4186 380.622C96.8992 380.519 97.3404 380.078 97.3404 379.416C97.3404 378.628 96.781 378.077 95.8671 378.077H93.5271V383.332ZM94.1811 380.354V378.66H95.7568C96.3477 378.66 96.6628 379.038 96.6628 379.511C96.6628 379.991 96.3477 380.354 95.7568 380.354H94.1811ZM94.1811 382.749V380.937H95.7883C96.4344 380.937 96.7653 381.362 96.7653 381.843C96.7653 382.402 96.4028 382.749 95.7883 382.749H94.1811ZM100.838 383.332H101.429V380.716C101.429 379.794 100.759 379.432 99.9554 379.432C99.333 379.432 98.8445 379.637 98.4348 380.062L98.7105 380.472C99.0493 380.11 99.4196 379.944 99.8766 379.944C100.428 379.944 100.838 380.236 100.838 380.748V381.433C100.531 381.079 100.097 380.913 99.5772 380.913C98.9311 380.913 98.2457 381.315 98.2457 382.166C98.2457 382.993 98.9311 383.426 99.5772 383.426C100.089 383.426 100.523 383.245 100.838 382.899V383.332ZM100.838 382.528C100.609 382.843 100.207 383.001 99.7899 383.001C99.2384 383.001 98.8524 382.654 98.8524 382.174C98.8524 381.685 99.2384 381.339 99.7899 381.339C100.207 381.339 100.609 381.496 100.838 381.811V382.528ZM105.182 383.332H105.773V380.661C105.773 379.834 105.355 379.432 104.559 379.432C103.992 379.432 103.472 379.763 103.204 380.078V379.527H102.613V383.332H103.204V380.551C103.425 380.243 103.866 379.96 104.331 379.96C104.843 379.96 105.182 380.173 105.182 380.842V383.332ZM106.732 381.425C106.732 382.56 107.496 383.426 108.631 383.426C109.324 383.426 109.734 383.143 110.025 382.765L109.631 382.402C109.379 382.741 109.056 382.899 108.662 382.899C107.851 382.899 107.347 382.268 107.347 381.425C107.347 380.582 107.851 379.96 108.662 379.96C109.056 379.96 109.379 380.11 109.631 380.456L110.025 380.094C109.734 379.716 109.324 379.432 108.631 379.432C107.496 379.432 106.732 380.299 106.732 381.425ZM112.516 383.426C113.674 383.426 114.399 382.528 114.399 381.425C114.399 380.322 113.674 379.432 112.516 379.432C111.358 379.432 110.633 380.322 110.633 381.425C110.633 382.528 111.358 383.426 112.516 383.426ZM112.516 382.899C111.704 382.899 111.247 382.205 111.247 381.425C111.247 380.653 111.704 379.96 112.516 379.96C113.327 379.96 113.776 380.653 113.776 381.425C113.776 382.205 113.327 382.899 112.516 382.899ZM115.244 379.905C115.244 380.141 115.441 380.338 115.677 380.338C115.914 380.338 116.111 380.141 116.111 379.905C116.111 379.668 115.914 379.471 115.677 379.471C115.441 379.471 115.244 379.668 115.244 379.905ZM115.244 382.977C115.244 383.214 115.441 383.411 115.677 383.411C115.914 383.411 116.111 383.214 116.111 382.977C116.111 382.741 115.914 382.544 115.677 382.544C115.441 382.544 115.244 382.741 115.244 382.977ZM97.301 399.332H98.0258L95.9065 394.077H95.095L92.9835 399.332H93.7083L94.1732 398.166H96.8362L97.301 399.332ZM95.5047 394.66L96.6392 397.583H94.3623L95.5047 394.66ZM98.6814 400.309C99.1304 400.75 99.5717 400.876 100.218 400.876C101.147 400.876 102.03 400.482 102.03 399.222V395.527H101.439V396.102C101.132 395.684 100.675 395.432 100.163 395.432C99.162 395.432 98.4686 396.188 98.4686 397.41C98.4686 398.639 99.1698 399.379 100.163 399.379C100.698 399.379 101.163 399.088 101.439 398.702V399.245C101.439 400.08 100.848 400.388 100.218 400.388C99.6741 400.388 99.2959 400.246 98.9808 399.868L98.6814 400.309ZM101.439 398.237C101.234 398.568 100.777 398.859 100.304 398.859C99.5401 398.859 99.0832 398.245 99.0832 397.41C99.0832 396.567 99.5401 395.96 100.304 395.96C100.777 395.96 101.234 396.243 101.439 396.574V398.237ZM105.514 394.951H105.916L105.144 393.817H104.576L103.828 394.951H104.23L104.86 394.116L105.514 394.951ZM102.993 397.425C102.993 398.615 103.804 399.426 104.931 399.426C105.553 399.426 106.065 399.222 106.444 398.843L106.16 398.457C105.861 398.765 105.419 398.938 104.986 398.938C104.167 398.938 103.662 398.339 103.615 397.622H106.696V397.473C106.696 396.33 106.018 395.432 104.868 395.432C103.781 395.432 102.993 396.322 102.993 397.425ZM104.86 395.92C105.727 395.92 106.105 396.622 106.113 397.189H103.615C103.647 396.606 104.048 395.92 104.86 395.92ZM110.221 399.332H110.812V396.661C110.812 395.834 110.395 395.432 109.599 395.432C109.032 395.432 108.512 395.763 108.244 396.078V395.527H107.653V399.332H108.244V396.551C108.464 396.243 108.905 395.96 109.37 395.96C109.882 395.96 110.221 396.173 110.221 396.842V399.332ZM111.772 397.425C111.772 398.56 112.536 399.426 113.67 399.426C114.364 399.426 114.773 399.143 115.065 398.765L114.671 398.402C114.419 398.741 114.096 398.899 113.702 398.899C112.89 398.899 112.386 398.268 112.386 397.425C112.386 396.582 112.89 395.96 113.702 395.96C114.096 395.96 114.419 396.11 114.671 396.456L115.065 396.094C114.773 395.716 114.364 395.432 113.67 395.432C112.536 395.432 111.772 396.299 111.772 397.425ZM116.185 394.888C116.405 394.888 116.586 394.707 116.586 394.487C116.586 394.266 116.405 394.093 116.185 394.093C115.972 394.093 115.791 394.266 115.791 394.487C115.791 394.707 115.972 394.888 116.185 394.888ZM115.893 399.332H116.484V395.527H115.893V399.332ZM120.042 399.332H120.633V396.716C120.633 395.794 119.963 395.432 119.16 395.432C118.537 395.432 118.049 395.637 117.639 396.062L117.915 396.472C118.254 396.11 118.624 395.944 119.081 395.944C119.632 395.944 120.042 396.236 120.042 396.748V397.433C119.735 397.079 119.301 396.913 118.781 396.913C118.135 396.913 117.45 397.315 117.45 398.166C117.45 398.993 118.135 399.426 118.781 399.426C119.294 399.426 119.727 399.245 120.042 398.899V399.332ZM120.042 398.528C119.813 398.843 119.412 399.001 118.994 399.001C118.443 399.001 118.057 398.654 118.057 398.174C118.057 397.685 118.443 397.339 118.994 397.339C119.412 397.339 119.813 397.496 120.042 397.811V398.528ZM121.699 395.905C121.699 396.141 121.896 396.338 122.133 396.338C122.369 396.338 122.566 396.141 122.566 395.905C122.566 395.668 122.369 395.471 122.133 395.471C121.896 395.471 121.699 395.668 121.699 395.905ZM121.699 398.977C121.699 399.214 121.896 399.411 122.133 399.411C122.369 399.411 122.566 399.214 122.566 398.977C122.566 398.741 122.369 398.544 122.133 398.544C121.896 398.544 121.699 398.741 121.699 398.977Z" fill="#855B35"/>
<path d="M139.065 261.364H139.979L138.632 259.261C139.302 259.174 139.94 258.67 139.94 257.724C139.94 256.755 139.255 256.109 138.254 256.109H136.04V261.364H136.828V259.339H137.813L139.065 261.364ZM139.128 257.724C139.128 258.276 138.719 258.646 138.152 258.646H136.828V256.802H138.152C138.719 256.802 139.128 257.173 139.128 257.724ZM144.692 259.875C144.692 258.827 143.825 258.528 143.006 258.307V256.771C143.424 256.842 143.81 257.031 144.109 257.346L144.574 256.763C144.18 256.361 143.66 256.109 143.006 256.046V255.313H142.447V256.038C141.47 256.109 140.8 256.716 140.8 257.527C140.8 258.52 141.643 258.811 142.447 259.016V260.734C141.856 260.663 141.391 260.356 141.084 260.017L140.635 260.624C141.036 261.073 141.635 261.396 142.447 261.451V262.152H143.006V261.443C144.204 261.348 144.692 260.631 144.692 259.875ZM141.612 257.472C141.612 257.062 141.942 256.779 142.447 256.739V258.158C141.974 258.024 141.612 257.85 141.612 257.472ZM143.006 260.734V259.166C143.502 259.316 143.888 259.497 143.888 259.946C143.888 260.277 143.652 260.663 143.006 260.734ZM147.28 260.6C147.619 261.073 148.296 261.459 149.21 261.459C150.4 261.459 151.132 260.821 151.132 259.938C151.132 259.111 150.408 258.701 149.911 258.654C150.431 258.559 151.054 258.173 151.054 257.441C151.054 256.558 150.282 256.03 149.21 256.03C148.367 256.03 147.745 256.385 147.351 256.85L147.768 257.338C148.154 256.944 148.588 256.731 149.139 256.731C149.762 256.731 150.266 257.015 150.266 257.551C150.266 258.094 149.746 258.331 149.108 258.331C148.903 258.331 148.627 258.331 148.54 258.323V259.04C148.619 259.032 148.895 259.032 149.108 259.032C149.872 259.032 150.345 259.276 150.345 259.859C150.345 260.411 149.911 260.757 149.186 260.757C148.596 260.757 148.052 260.49 147.721 260.088L147.28 260.6ZM151.971 260.954C151.971 261.222 152.192 261.451 152.459 261.451C152.727 261.451 152.956 261.222 152.956 260.954C152.956 260.687 152.727 260.466 152.459 260.466C152.192 260.466 151.971 260.687 151.971 260.954ZM153.817 261.364H157.52V260.671H155.07C156.511 259.56 157.496 258.638 157.496 257.614C157.496 256.566 156.606 256.03 155.66 256.03C154.928 256.03 154.211 256.322 153.777 256.865L154.242 257.378C154.565 256.991 155.046 256.731 155.668 256.731C156.18 256.731 156.693 256.999 156.693 257.614C156.693 258.441 155.786 259.229 153.817 260.742V261.364ZM158.424 258.741C158.424 260.041 159.023 261.459 160.481 261.459C161.938 261.459 162.537 260.041 162.537 258.741C162.537 257.441 161.938 256.03 160.481 256.03C159.023 256.03 158.424 257.441 158.424 258.741ZM161.733 258.741C161.733 259.765 161.41 260.757 160.481 260.757C159.551 260.757 159.228 259.765 159.228 258.741C159.228 257.716 159.551 256.731 160.481 256.731C161.41 256.731 161.733 257.716 161.733 258.741ZM163.264 258.741C163.264 260.041 163.863 261.459 165.32 261.459C166.778 261.459 167.377 260.041 167.377 258.741C167.377 257.441 166.778 256.03 165.32 256.03C163.863 256.03 163.264 257.441 163.264 258.741ZM166.573 258.741C166.573 259.765 166.25 260.757 165.32 260.757C164.391 260.757 164.068 259.765 164.068 258.741C164.068 257.716 164.391 256.731 165.32 256.731C166.25 256.731 166.573 257.716 166.573 258.741ZM168.298 262.388C168.7 262.105 168.991 261.632 168.991 261.12C168.991 260.702 168.731 260.466 168.44 260.466C168.172 260.466 167.959 260.679 167.959 260.947C167.959 261.207 168.14 261.396 168.385 261.396C168.424 261.396 168.487 261.38 168.503 261.38C168.463 261.64 168.219 261.955 167.967 262.113L168.298 262.388ZM169.758 258.741C169.758 260.041 170.356 261.459 171.814 261.459C173.272 261.459 173.87 260.041 173.87 258.741C173.87 257.441 173.272 256.03 171.814 256.03C170.356 256.03 169.758 257.441 169.758 258.741ZM173.067 258.741C173.067 259.765 172.744 260.757 171.814 260.757C170.884 260.757 170.561 259.765 170.561 258.741C170.561 257.716 170.884 256.731 171.814 256.731C172.744 256.731 173.067 257.716 173.067 258.741ZM174.597 258.741C174.597 260.041 175.196 261.459 176.653 261.459C178.111 261.459 178.71 260.041 178.71 258.741C178.71 257.441 178.111 256.03 176.653 256.03C175.196 256.03 174.597 257.441 174.597 258.741ZM177.906 258.741C177.906 259.765 177.583 260.757 176.653 260.757C175.724 260.757 175.401 259.765 175.401 258.741C175.401 257.716 175.724 256.731 176.653 256.731C177.583 256.731 177.906 257.716 177.906 258.741ZM135.819 274.748C135.819 276.19 136.41 277.459 137.915 277.459C139.073 277.459 139.806 276.663 139.806 275.717C139.806 274.599 139.01 274.031 138.065 274.031C137.419 274.031 136.852 274.449 136.623 274.804C136.615 274.748 136.615 274.693 136.615 274.63C136.615 273.653 137.096 272.731 138.049 272.731C138.569 272.731 138.876 272.928 139.144 273.236L139.53 272.637C139.192 272.275 138.711 272.03 138.049 272.03C136.544 272.03 135.819 273.275 135.819 274.748ZM139.01 275.741C139.01 276.206 138.632 276.757 137.876 276.757C137.017 276.757 136.694 276.025 136.631 275.41C136.907 274.993 137.379 274.709 137.868 274.709C138.49 274.709 139.01 275.04 139.01 275.741ZM140.631 276.631C141.041 277.144 141.639 277.459 142.538 277.459C143.648 277.459 144.468 276.781 144.468 275.702C144.468 274.622 143.672 274.016 142.79 274.016C142.278 274.016 141.836 274.228 141.584 274.481V272.802H144.121V272.109H140.796V274.993L141.364 275.174C141.71 274.843 142.089 274.701 142.545 274.701C143.223 274.701 143.672 275.103 143.672 275.733C143.672 276.308 143.215 276.757 142.53 276.757C141.915 276.757 141.442 276.521 141.096 276.096L140.631 276.631ZM145.317 276.631C145.726 277.144 146.325 277.459 147.223 277.459C148.334 277.459 149.154 276.781 149.154 275.702C149.154 274.622 148.358 274.016 147.475 274.016C146.963 274.016 146.522 274.228 146.27 274.481V272.802H148.807V272.109H145.482V274.993L146.049 275.174C146.396 274.843 146.774 274.701 147.231 274.701C147.909 274.701 148.358 275.103 148.358 275.733C148.358 276.308 147.901 276.757 147.215 276.757C146.601 276.757 146.128 276.521 145.781 276.096L145.317 276.631ZM153.82 275.765H155.711V275.15H153.82V275.765ZM158.56 277.364H161.089C162.058 277.364 162.61 276.773 162.61 275.946C162.61 275.308 162.153 274.741 161.594 274.654C162.074 274.551 162.508 274.11 162.508 273.448C162.508 272.684 161.964 272.109 161.026 272.109H158.56V277.364ZM159.348 274.339V272.802H160.877C161.405 272.802 161.696 273.141 161.696 273.575C161.696 274.008 161.405 274.339 160.877 274.339H159.348ZM159.348 276.671V275.032H160.916C161.499 275.032 161.798 275.41 161.798 275.844C161.798 276.356 161.468 276.671 160.916 276.671H159.348ZM165.917 277.364H166.626V274.796C166.626 273.827 165.924 273.464 165.097 273.464C164.483 273.464 163.963 273.669 163.537 274.087L163.845 274.575C164.183 274.236 164.554 274.071 164.987 274.071C165.531 274.071 165.917 274.354 165.917 274.827V275.458C165.625 275.119 165.184 274.953 164.672 274.953C164.034 274.953 163.348 275.331 163.348 276.198C163.348 277.033 164.041 277.459 164.672 277.459C165.184 277.459 165.617 277.277 165.917 276.947V277.364ZM165.917 276.529C165.704 276.813 165.334 276.962 164.94 276.962C164.428 276.962 164.065 276.655 164.065 276.206C164.065 275.757 164.428 275.45 164.94 275.45C165.334 275.45 165.704 275.599 165.917 275.883V276.529ZM170.33 277.364H171.04V274.693C171.04 273.89 170.622 273.464 169.818 273.464C169.227 273.464 168.723 273.787 168.471 274.094V273.559H167.762V277.364H168.471V274.646C168.676 274.362 169.078 274.094 169.519 274.094C170.007 274.094 170.33 274.299 170.33 274.93V277.364ZM171.927 275.458C171.927 276.6 172.714 277.459 173.865 277.459C174.582 277.459 175.015 277.159 175.291 276.789L174.818 276.356C174.59 276.671 174.282 276.828 173.896 276.828C173.148 276.828 172.667 276.245 172.667 275.458C172.667 274.67 173.148 274.094 173.896 274.094C174.282 274.094 174.59 274.244 174.818 274.567L175.291 274.134C175.015 273.764 174.582 273.464 173.865 273.464C172.714 273.464 171.927 274.315 171.927 275.458ZM177.758 277.459C178.947 277.459 179.68 276.561 179.68 275.458C179.68 274.362 178.947 273.464 177.758 273.464C176.576 273.464 175.835 274.362 175.835 275.458C175.835 276.561 176.576 277.459 177.758 277.459ZM177.758 276.828C177.001 276.828 176.576 276.182 176.576 275.458C176.576 274.741 177.001 274.094 177.758 274.094C178.522 274.094 178.939 274.741 178.939 275.458C178.939 276.182 178.522 276.828 177.758 276.828ZM184.171 277.364H185.156L187.244 272.109H186.346L184.66 276.505L182.982 272.109H182.084L184.171 277.364ZM189.075 277.459C190.265 277.459 190.998 276.561 190.998 275.458C190.998 274.362 190.265 273.464 189.075 273.464C187.894 273.464 187.153 274.362 187.153 275.458C187.153 276.561 187.894 277.459 189.075 277.459ZM189.075 276.828C188.319 276.828 187.894 276.182 187.894 275.458C187.894 274.741 188.319 274.094 189.075 274.094C189.84 274.094 190.257 274.741 190.257 275.458C190.257 276.182 189.84 276.828 189.075 276.828ZM192.946 277.459C193.316 277.459 193.537 277.356 193.686 277.214L193.505 276.679C193.434 276.757 193.285 276.828 193.119 276.828C192.875 276.828 192.749 276.631 192.749 276.364V274.181H193.521V273.559H192.749V272.519H192.04V273.559H191.41V274.181H192.04V276.521C192.04 277.12 192.347 277.459 192.946 277.459ZM195.992 277.459C197.182 277.459 197.915 276.561 197.915 275.458C197.915 274.362 197.182 273.464 195.992 273.464C194.81 273.464 194.07 274.362 194.07 275.458C194.07 276.561 194.81 277.459 195.992 277.459ZM195.992 276.828C195.236 276.828 194.81 276.182 194.81 275.458C194.81 274.741 195.236 274.094 195.992 274.094C196.757 274.094 197.174 274.741 197.174 275.458C197.174 276.182 196.757 276.828 195.992 276.828ZM198.815 277.364H199.524V274.717C199.689 274.433 200.17 274.165 200.525 274.165C200.619 274.165 200.698 274.173 200.769 274.189V273.472C200.265 273.472 199.816 273.764 199.524 274.142V273.559H198.815V277.364ZM203.825 277.364H204.534V274.796C204.534 273.827 203.833 273.464 203.006 273.464C202.391 273.464 201.871 273.669 201.446 274.087L201.753 274.575C202.092 274.236 202.462 274.071 202.895 274.071C203.439 274.071 203.825 274.354 203.825 274.827V275.458C203.533 275.119 203.092 274.953 202.58 274.953C201.942 274.953 201.256 275.331 201.256 276.198C201.256 277.033 201.95 277.459 202.58 277.459C203.092 277.459 203.526 277.277 203.825 276.947V277.364ZM203.825 276.529C203.612 276.813 203.242 276.962 202.848 276.962C202.336 276.962 201.973 276.655 201.973 276.206C201.973 275.757 202.336 275.45 202.848 275.45C203.242 275.45 203.612 275.599 203.825 275.883V276.529ZM208.239 277.364H208.948V274.693C208.948 273.89 208.53 273.464 207.727 273.464C207.136 273.464 206.631 273.787 206.379 274.094V273.559H205.67V277.364H206.379V274.646C206.584 274.362 206.986 274.094 207.427 274.094C207.916 274.094 208.239 274.299 208.239 274.93V277.364ZM211.119 277.459C211.489 277.459 211.71 277.356 211.86 277.214L211.678 276.679C211.608 276.757 211.458 276.828 211.292 276.828C211.048 276.828 210.922 276.631 210.922 276.364V274.181H211.694V273.559H210.922V272.519H210.213V273.559H209.583V274.181H210.213V276.521C210.213 277.12 210.52 277.459 211.119 277.459ZM212.826 272.921C213.078 272.921 213.283 272.724 213.283 272.471C213.283 272.219 213.078 272.015 212.826 272.015C212.582 272.015 212.369 272.219 212.369 272.471C212.369 272.724 212.582 272.921 212.826 272.921ZM212.479 277.364H213.189V273.559H212.479V277.364ZM218.943 277.364H219.652V274.614C219.652 273.85 219.274 273.464 218.573 273.464C218.013 273.464 217.509 273.819 217.289 274.173C217.17 273.764 216.832 273.464 216.256 273.464C215.689 273.464 215.185 273.858 215.027 274.094V273.559H214.318V277.364H215.027V274.646C215.216 274.37 215.587 274.094 215.957 274.094C216.438 274.094 216.627 274.386 216.627 274.827V277.364H217.336V274.638C217.517 274.362 217.895 274.094 218.281 274.094C218.746 274.094 218.943 274.386 218.943 274.827V277.364ZM138.514 293.459C139.546 293.459 140.184 292.962 140.602 292.348L139.932 291.993C139.656 292.434 139.136 292.757 138.514 292.757C137.45 292.757 136.631 291.914 136.631 290.741C136.631 289.559 137.45 288.724 138.514 288.724C139.136 288.724 139.656 289.047 139.932 289.488L140.602 289.133C140.192 288.519 139.546 288.022 138.514 288.022C137.017 288.022 135.819 289.125 135.819 290.741C135.819 292.356 137.017 293.459 138.514 293.459ZM143.058 293.459C144.247 293.459 144.98 292.561 144.98 291.458C144.98 290.362 144.247 289.464 143.058 289.464C141.876 289.464 141.135 290.362 141.135 291.458C141.135 292.561 141.876 293.459 143.058 293.459ZM143.058 292.828C142.301 292.828 141.876 292.182 141.876 291.458C141.876 290.741 142.301 290.094 143.058 290.094C143.822 290.094 144.239 290.741 144.239 291.458C144.239 292.182 143.822 292.828 143.058 292.828ZM148.449 293.364H149.158V290.693C149.158 289.89 148.74 289.464 147.937 289.464C147.346 289.464 146.841 289.787 146.589 290.094V289.559H145.88V293.364H146.589V290.646C146.794 290.362 147.196 290.094 147.637 290.094C148.126 290.094 148.449 290.299 148.449 290.93V293.364ZM151.329 293.459C151.699 293.459 151.92 293.356 152.07 293.214L151.888 292.679C151.818 292.757 151.668 292.828 151.502 292.828C151.258 292.828 151.132 292.631 151.132 292.364V290.181H151.904V289.559H151.132V288.519H150.423V289.559H149.793V290.181H150.423V292.521C150.423 293.12 150.73 293.459 151.329 293.459ZM155.037 293.364H155.746V290.796C155.746 289.827 155.045 289.464 154.218 289.464C153.603 289.464 153.083 289.669 152.658 290.087L152.965 290.575C153.304 290.236 153.674 290.071 154.108 290.071C154.651 290.071 155.037 290.354 155.037 290.827V291.458C154.746 291.119 154.305 290.953 153.792 290.953C153.154 290.953 152.469 291.331 152.469 292.198C152.469 293.033 153.162 293.459 153.792 293.459C154.305 293.459 154.738 293.277 155.037 292.947V293.364ZM155.037 292.529C154.825 292.813 154.454 292.962 154.06 292.962C153.548 292.962 153.186 292.655 153.186 292.206C153.186 291.757 153.548 291.45 154.06 291.45C154.454 291.45 154.825 291.599 155.037 291.883V292.529ZM156.757 290C156.757 290.26 156.977 290.488 157.245 290.488C157.513 290.488 157.741 290.26 157.741 290C157.741 289.732 157.513 289.504 157.245 289.504C156.977 289.504 156.757 289.732 156.757 290ZM156.757 292.954C156.757 293.222 156.977 293.451 157.245 293.451C157.513 293.451 157.741 293.222 157.741 292.954C157.741 292.687 157.513 292.466 157.245 292.466C156.977 292.466 156.757 292.687 156.757 292.954ZM160.586 290.741C160.586 292.041 161.185 293.459 162.643 293.459C164.1 293.459 164.699 292.041 164.699 290.741C164.699 289.441 164.1 288.03 162.643 288.03C161.185 288.03 160.586 289.441 160.586 290.741ZM163.895 290.741C163.895 291.765 163.572 292.757 162.643 292.757C161.713 292.757 161.39 291.765 161.39 290.741C161.39 289.716 161.713 288.731 162.643 288.731C163.572 288.731 163.895 289.716 163.895 290.741ZM165.426 290.741C165.426 292.041 166.025 293.459 167.482 293.459C168.94 293.459 169.539 292.041 169.539 290.741C169.539 289.441 168.94 288.03 167.482 288.03C166.025 288.03 165.426 289.441 165.426 290.741ZM168.735 290.741C168.735 291.765 168.412 292.757 167.482 292.757C166.553 292.757 166.23 291.765 166.23 290.741C166.23 289.716 166.553 288.731 167.482 288.731C168.412 288.731 168.735 289.716 168.735 290.741ZM170.265 290.741C170.265 292.041 170.864 293.459 172.322 293.459C173.779 293.459 174.378 292.041 174.378 290.741C174.378 289.441 173.779 288.03 172.322 288.03C170.864 288.03 170.265 289.441 170.265 290.741ZM173.574 290.741C173.574 291.765 173.251 292.757 172.322 292.757C171.392 292.757 171.069 291.765 171.069 290.741C171.069 289.716 171.392 288.731 172.322 288.731C173.251 288.731 173.574 289.716 173.574 290.741ZM175.105 290.741C175.105 292.041 175.704 293.459 177.161 293.459C178.619 293.459 179.218 292.041 179.218 290.741C179.218 289.441 178.619 288.03 177.161 288.03C175.704 288.03 175.105 289.441 175.105 290.741ZM178.414 290.741C178.414 291.765 178.091 292.757 177.161 292.757C176.232 292.757 175.909 291.765 175.909 290.741C175.909 289.716 176.232 288.731 177.161 288.731C178.091 288.731 178.414 289.716 178.414 290.741ZM179.944 290.741C179.944 292.041 180.543 293.459 182.001 293.459C183.458 293.459 184.057 292.041 184.057 290.741C184.057 289.441 183.458 288.03 182.001 288.03C180.543 288.03 179.944 289.441 179.944 290.741ZM183.254 290.741C183.254 291.765 182.93 292.757 182.001 292.757C181.071 292.757 180.748 291.765 180.748 290.741C180.748 289.716 181.071 288.731 182.001 288.731C182.93 288.731 183.254 289.716 183.254 290.741ZM184.658 291.765H186.549V291.15H184.658V291.765ZM187.146 290.741C187.146 292.041 187.745 293.459 189.202 293.459C190.66 293.459 191.259 292.041 191.259 290.741C191.259 289.441 190.66 288.03 189.202 288.03C187.745 288.03 187.146 289.441 187.146 290.741ZM190.455 290.741C190.455 291.765 190.132 292.757 189.202 292.757C188.273 292.757 187.95 291.765 187.95 290.741C187.95 289.716 188.273 288.731 189.202 288.731C190.132 288.731 190.455 289.716 190.455 290.741Z" fill="#855B35"/>
<path d="M135.819 366.284C135.819 367.584 136.418 369.002 137.876 369.002C139.333 369.002 139.932 367.584 139.932 366.284C139.932 364.984 139.333 363.574 137.876 363.574C136.418 363.574 135.819 364.984 135.819 366.284ZM139.128 366.284C139.128 367.308 138.805 368.301 137.876 368.301C136.946 368.301 136.623 367.308 136.623 366.284C136.623 365.26 136.946 364.275 137.876 364.275C138.805 364.275 139.128 365.26 139.128 366.284ZM140.659 366.284C140.659 367.584 141.258 369.002 142.715 369.002C144.173 369.002 144.772 367.584 144.772 366.284C144.772 364.984 144.173 363.574 142.715 363.574C141.258 363.574 140.659 364.984 140.659 366.284ZM143.968 366.284C143.968 367.308 143.645 368.301 142.715 368.301C141.786 368.301 141.463 367.308 141.463 366.284C141.463 365.26 141.786 364.275 142.715 364.275C143.645 364.275 143.968 365.26 143.968 366.284ZM145.354 368.498C145.354 368.766 145.575 368.994 145.843 368.994C146.11 368.994 146.339 368.766 146.339 368.498C146.339 368.23 146.11 368.009 145.843 368.009C145.575 368.009 145.354 368.23 145.354 368.498ZM147.153 366.284C147.153 367.584 147.751 369.002 149.209 369.002C150.667 369.002 151.265 367.584 151.265 366.284C151.265 364.984 150.667 363.574 149.209 363.574C147.751 363.574 147.153 364.984 147.153 366.284ZM150.462 366.284C150.462 367.308 150.139 368.301 149.209 368.301C148.279 368.301 147.956 367.308 147.956 366.284C147.956 365.26 148.279 364.275 149.209 364.275C150.139 364.275 150.462 365.26 150.462 366.284ZM151.992 366.284C151.992 367.584 152.591 369.002 154.049 369.002C155.506 369.002 156.105 367.584 156.105 366.284C156.105 364.984 155.506 363.574 154.049 363.574C152.591 363.574 151.992 364.984 151.992 366.284ZM155.301 366.284C155.301 367.308 154.978 368.301 154.049 368.301C153.119 368.301 152.796 367.308 152.796 366.284C152.796 365.26 153.119 364.275 154.049 364.275C154.978 364.275 155.301 365.26 155.301 366.284ZM156.832 366.284C156.832 367.584 157.431 369.002 158.888 369.002C160.346 369.002 160.944 367.584 160.944 366.284C160.944 364.984 160.346 363.574 158.888 363.574C157.431 363.574 156.832 364.984 156.832 366.284ZM160.141 366.284C160.141 367.308 159.818 368.301 158.888 368.301C157.958 368.301 157.635 367.308 157.635 366.284C157.635 365.26 157.958 364.275 158.888 364.275C159.818 364.275 160.141 365.26 160.141 366.284ZM161.527 368.498C161.527 368.766 161.748 368.994 162.015 368.994C162.283 368.994 162.512 368.766 162.512 368.498C162.512 368.23 162.283 368.009 162.015 368.009C161.748 368.009 161.527 368.23 161.527 368.498ZM163.325 366.284C163.325 367.584 163.924 369.002 165.382 369.002C166.839 369.002 167.438 367.584 167.438 366.284C167.438 364.984 166.839 363.574 165.382 363.574C163.924 363.574 163.325 364.984 163.325 366.284ZM166.634 366.284C166.634 367.308 166.311 368.301 165.382 368.301C164.452 368.301 164.129 367.308 164.129 366.284C164.129 365.26 164.452 364.275 165.382 364.275C166.311 364.275 166.634 365.26 166.634 366.284ZM168.165 366.284C168.165 367.584 168.764 369.002 170.221 369.002C171.679 369.002 172.278 367.584 172.278 366.284C172.278 364.984 171.679 363.574 170.221 363.574C168.764 363.574 168.165 364.984 168.165 366.284ZM171.474 366.284C171.474 367.308 171.151 368.301 170.221 368.301C169.292 368.301 168.969 367.308 168.969 366.284C168.969 365.26 169.292 364.275 170.221 364.275C171.151 364.275 171.474 365.26 171.474 366.284ZM173.004 366.284C173.004 367.584 173.603 369.002 175.061 369.002C176.518 369.002 177.117 367.584 177.117 366.284C177.117 364.984 176.518 363.574 175.061 363.574C173.603 363.574 173.004 364.984 173.004 366.284ZM176.314 366.284C176.314 367.308 175.991 368.301 175.061 368.301C174.131 368.301 173.808 367.308 173.808 366.284C173.808 365.26 174.131 364.275 175.061 364.275C175.991 364.275 176.314 365.26 176.314 366.284ZM177.482 369.065H178.025L179.892 363.495H179.349L177.482 369.065ZM180.252 366.284C180.252 367.584 180.851 369.002 182.309 369.002C183.766 369.002 184.365 367.584 184.365 366.284C184.365 364.984 183.766 363.574 182.309 363.574C180.851 363.574 180.252 364.984 180.252 366.284ZM183.561 366.284C183.561 367.308 183.238 368.301 182.309 368.301C181.379 368.301 181.056 367.308 181.056 366.284C181.056 365.26 181.379 364.275 182.309 364.275C183.238 364.275 183.561 365.26 183.561 366.284ZM185.092 366.284C185.092 367.584 185.691 369.002 187.148 369.002C188.606 369.002 189.204 367.584 189.204 366.284C189.204 364.984 188.606 363.574 187.148 363.574C185.691 363.574 185.092 364.984 185.092 366.284ZM188.401 366.284C188.401 367.308 188.078 368.301 187.148 368.301C186.218 368.301 185.895 367.308 185.895 366.284C185.895 365.26 186.218 364.275 187.148 364.275C188.078 364.275 188.401 365.26 188.401 366.284ZM189.931 366.284C189.931 367.584 190.53 369.002 191.988 369.002C193.445 369.002 194.044 367.584 194.044 366.284C194.044 364.984 193.445 363.574 191.988 363.574C190.53 363.574 189.931 364.984 189.931 366.284ZM193.24 366.284C193.24 367.308 192.917 368.301 191.988 368.301C191.058 368.301 190.735 367.308 190.735 366.284C190.735 365.26 191.058 364.275 191.988 364.275C192.917 364.275 193.24 365.26 193.24 366.284ZM195.866 368.908H196.654V363.653H195.96L194.55 365.094L195.015 365.575L195.866 364.685V368.908ZM197.476 367.308H199.367V366.694H197.476V367.308ZM199.964 366.284C199.964 367.584 200.563 369.002 202.021 369.002C203.478 369.002 204.077 367.584 204.077 366.284C204.077 364.984 203.478 363.574 202.021 363.574C200.563 363.574 199.964 364.984 199.964 366.284ZM203.273 366.284C203.273 367.308 202.95 368.301 202.021 368.301C201.091 368.301 200.768 367.308 200.768 366.284C200.768 365.26 201.091 364.275 202.021 364.275C202.95 364.275 203.273 365.26 203.273 366.284ZM204.804 366.284C204.804 367.584 205.403 369.002 206.86 369.002C208.318 369.002 208.916 367.584 208.916 366.284C208.916 364.984 208.318 363.574 206.86 363.574C205.403 363.574 204.804 364.984 204.804 366.284ZM208.113 366.284C208.113 367.308 207.79 368.301 206.86 368.301C205.93 368.301 205.607 367.308 205.607 366.284C205.607 365.26 205.93 364.275 206.86 364.275C207.79 364.275 208.113 365.26 208.113 366.284ZM135.819 382.292C135.819 383.734 136.41 385.002 137.915 385.002C139.073 385.002 139.806 384.206 139.806 383.261C139.806 382.142 139.01 381.575 138.065 381.575C137.419 381.575 136.852 381.992 136.623 382.347C136.615 382.292 136.615 382.237 136.615 382.174C136.615 381.197 137.096 380.275 138.049 380.275C138.569 380.275 138.876 380.472 139.144 380.779L139.53 380.18C139.192 379.818 138.711 379.574 138.049 379.574C136.544 379.574 135.819 380.819 135.819 382.292ZM139.01 383.285C139.01 383.749 138.632 384.301 137.876 384.301C137.017 384.301 136.694 383.568 136.631 382.954C136.907 382.536 137.379 382.252 137.868 382.252C138.49 382.252 139.01 382.583 139.01 383.285ZM140.631 384.175C141.041 384.687 141.639 385.002 142.538 385.002C143.648 385.002 144.468 384.325 144.468 383.245C144.468 382.166 143.672 381.559 142.79 381.559C142.278 381.559 141.836 381.772 141.584 382.024V380.346H144.121V379.653H140.796V382.536L141.364 382.717C141.71 382.386 142.089 382.245 142.545 382.245C143.223 382.245 143.672 382.646 143.672 383.277C143.672 383.852 143.215 384.301 142.53 384.301C141.915 384.301 141.442 384.065 141.096 383.639L140.631 384.175ZM145.317 384.175C145.726 384.687 146.325 385.002 147.223 385.002C148.334 385.002 149.154 384.325 149.154 383.245C149.154 382.166 148.358 381.559 147.475 381.559C146.963 381.559 146.522 381.772 146.27 382.024V380.346H148.807V379.653H145.482V382.536L146.049 382.717C146.396 382.386 146.774 382.245 147.231 382.245C147.909 382.245 148.358 382.646 148.358 383.277C148.358 383.852 147.901 384.301 147.215 384.301C146.601 384.301 146.128 384.065 145.781 383.639L145.317 384.175ZM153.82 383.308H155.711V382.694H153.82V383.308ZM158.56 384.908H161.089C162.058 384.908 162.61 384.317 162.61 383.489C162.61 382.851 162.153 382.284 161.594 382.197C162.074 382.095 162.508 381.654 162.508 380.992C162.508 380.228 161.964 379.653 161.026 379.653H158.56V384.908ZM159.348 381.882V380.346H160.877C161.405 380.346 161.696 380.685 161.696 381.118C161.696 381.551 161.405 381.882 160.877 381.882H159.348ZM159.348 384.214V382.576H160.916C161.499 382.576 161.798 382.954 161.798 383.387C161.798 383.899 161.468 384.214 160.916 384.214H159.348ZM165.917 384.908H166.626V382.339C166.626 381.37 165.924 381.008 165.097 381.008C164.483 381.008 163.963 381.213 163.537 381.63L163.845 382.119C164.183 381.78 164.554 381.614 164.987 381.614C165.531 381.614 165.917 381.898 165.917 382.371V383.001C165.625 382.662 165.184 382.497 164.672 382.497C164.034 382.497 163.348 382.875 163.348 383.742C163.348 384.577 164.041 385.002 164.672 385.002C165.184 385.002 165.617 384.821 165.917 384.49V384.908ZM165.917 384.072C165.704 384.356 165.334 384.506 164.94 384.506C164.428 384.506 164.065 384.199 164.065 383.749C164.065 383.3 164.428 382.993 164.94 382.993C165.334 382.993 165.704 383.143 165.917 383.426V384.072ZM170.33 384.908H171.04V382.237C171.04 381.433 170.622 381.008 169.818 381.008C169.227 381.008 168.723 381.331 168.471 381.638V381.102H167.762V384.908H168.471V382.189C168.676 381.906 169.078 381.638 169.519 381.638C170.007 381.638 170.33 381.843 170.33 382.473V384.908ZM171.927 383.001C171.927 384.143 172.714 385.002 173.865 385.002C174.582 385.002 175.015 384.703 175.291 384.332L174.818 383.899C174.59 384.214 174.282 384.372 173.896 384.372C173.148 384.372 172.667 383.789 172.667 383.001C172.667 382.213 173.148 381.638 173.896 381.638C174.282 381.638 174.59 381.788 174.818 382.111L175.291 381.677C175.015 381.307 174.582 381.008 173.865 381.008C172.714 381.008 171.927 381.859 171.927 383.001ZM177.758 385.002C178.947 385.002 179.68 384.104 179.68 383.001C179.68 381.906 178.947 381.008 177.758 381.008C176.576 381.008 175.835 381.906 175.835 383.001C175.835 384.104 176.576 385.002 177.758 385.002ZM177.758 384.372C177.001 384.372 176.576 383.726 176.576 383.001C176.576 382.284 177.001 381.638 177.758 381.638C178.522 381.638 178.939 382.284 178.939 383.001C178.939 383.726 178.522 384.372 177.758 384.372ZM184.171 384.908H185.156L187.244 379.653H186.346L184.66 384.049L182.982 379.653H182.084L184.171 384.908ZM189.075 385.002C190.265 385.002 190.998 384.104 190.998 383.001C190.998 381.906 190.265 381.008 189.075 381.008C187.894 381.008 187.153 381.906 187.153 383.001C187.153 384.104 187.894 385.002 189.075 385.002ZM189.075 384.372C188.319 384.372 187.894 383.726 187.894 383.001C187.894 382.284 188.319 381.638 189.075 381.638C189.84 381.638 190.257 382.284 190.257 383.001C190.257 383.726 189.84 384.372 189.075 384.372ZM192.946 385.002C193.316 385.002 193.537 384.9 193.686 384.758L193.505 384.222C193.434 384.301 193.285 384.372 193.119 384.372C192.875 384.372 192.749 384.175 192.749 383.907V381.725H193.521V381.102H192.749V380.062H192.04V381.102H191.41V381.725H192.04V384.065C192.04 384.663 192.347 385.002 192.946 385.002ZM195.992 385.002C197.182 385.002 197.915 384.104 197.915 383.001C197.915 381.906 197.182 381.008 195.992 381.008C194.81 381.008 194.07 381.906 194.07 383.001C194.07 384.104 194.81 385.002 195.992 385.002ZM195.992 384.372C195.236 384.372 194.81 383.726 194.81 383.001C194.81 382.284 195.236 381.638 195.992 381.638C196.757 381.638 197.174 382.284 197.174 383.001C197.174 383.726 196.757 384.372 195.992 384.372ZM198.815 384.908H199.524V382.26C199.689 381.977 200.17 381.709 200.525 381.709C200.619 381.709 200.698 381.717 200.769 381.732V381.016C200.265 381.016 199.816 381.307 199.524 381.685V381.102H198.815V384.908ZM203.825 384.908H204.534V382.339C204.534 381.37 203.833 381.008 203.006 381.008C202.391 381.008 201.871 381.213 201.446 381.63L201.753 382.119C202.092 381.78 202.462 381.614 202.895 381.614C203.439 381.614 203.825 381.898 203.825 382.371V383.001C203.533 382.662 203.092 382.497 202.58 382.497C201.942 382.497 201.256 382.875 201.256 383.742C201.256 384.577 201.95 385.002 202.58 385.002C203.092 385.002 203.526 384.821 203.825 384.49V384.908ZM203.825 384.072C203.612 384.356 203.242 384.506 202.848 384.506C202.336 384.506 201.973 384.199 201.973 383.749C201.973 383.3 202.336 382.993 202.848 382.993C203.242 382.993 203.612 383.143 203.825 383.426V384.072ZM208.239 384.908H208.948V382.237C208.948 381.433 208.53 381.008 207.727 381.008C207.136 381.008 206.631 381.331 206.379 381.638V381.102H205.67V384.908H206.379V382.189C206.584 381.906 206.986 381.638 207.427 381.638C207.916 381.638 208.239 381.843 208.239 382.473V384.908ZM211.119 385.002C211.489 385.002 211.71 384.9 211.86 384.758L211.678 384.222C211.608 384.301 211.458 384.372 211.292 384.372C211.048 384.372 210.922 384.175 210.922 383.907V381.725H211.694V381.102H210.922V380.062H210.213V381.102H209.583V381.725H210.213V384.065C210.213 384.663 210.52 385.002 211.119 385.002ZM212.826 380.464C213.078 380.464 213.283 380.267 213.283 380.015C213.283 379.763 213.078 379.558 212.826 379.558C212.582 379.558 212.369 379.763 212.369 380.015C212.369 380.267 212.582 380.464 212.826 380.464ZM212.479 384.908H213.189V381.102H212.479V384.908ZM218.943 384.908H219.652V382.158C219.652 381.394 219.274 381.008 218.573 381.008C218.013 381.008 217.509 381.362 217.289 381.717C217.17 381.307 216.832 381.008 216.256 381.008C215.689 381.008 215.185 381.402 215.027 381.638V381.102H214.318V384.908H215.027V382.189C215.216 381.914 215.587 381.638 215.957 381.638C216.438 381.638 216.627 381.929 216.627 382.371V384.908H217.336V382.182C217.517 381.906 217.895 381.638 218.281 381.638C218.746 381.638 218.943 381.929 218.943 382.371V384.908ZM138.514 401.002C139.546 401.002 140.184 400.506 140.602 399.891L139.932 399.537C139.656 399.978 139.136 400.301 138.514 400.301C137.45 400.301 136.631 399.458 136.631 398.284C136.631 397.102 137.45 396.267 138.514 396.267C139.136 396.267 139.656 396.59 139.932 397.031L140.602 396.677C140.192 396.062 139.546 395.566 138.514 395.566C137.017 395.566 135.819 396.669 135.819 398.284C135.819 399.899 137.017 401.002 138.514 401.002ZM143.058 401.002C144.247 401.002 144.98 400.104 144.98 399.001C144.98 397.906 144.247 397.008 143.058 397.008C141.876 397.008 141.135 397.906 141.135 399.001C141.135 400.104 141.876 401.002 143.058 401.002ZM143.058 400.372C142.301 400.372 141.876 399.726 141.876 399.001C141.876 398.284 142.301 397.638 143.058 397.638C143.822 397.638 144.239 398.284 144.239 399.001C144.239 399.726 143.822 400.372 143.058 400.372ZM148.449 400.908H149.158V398.237C149.158 397.433 148.74 397.008 147.937 397.008C147.346 397.008 146.841 397.331 146.589 397.638V397.102H145.88V400.908H146.589V398.189C146.794 397.906 147.196 397.638 147.637 397.638C148.126 397.638 148.449 397.843 148.449 398.473V400.908ZM151.329 401.002C151.699 401.002 151.92 400.9 152.07 400.758L151.888 400.222C151.818 400.301 151.668 400.372 151.502 400.372C151.258 400.372 151.132 400.175 151.132 399.907V397.725H151.904V397.102H151.132V396.062H150.423V397.102H149.793V397.725H150.423V400.065C150.423 400.663 150.73 401.002 151.329 401.002ZM155.037 400.908H155.746V398.339C155.746 397.37 155.045 397.008 154.218 397.008C153.603 397.008 153.083 397.213 152.658 397.63L152.965 398.119C153.304 397.78 153.674 397.614 154.108 397.614C154.651 397.614 155.037 397.898 155.037 398.371V399.001C154.746 398.662 154.305 398.497 153.792 398.497C153.154 398.497 152.469 398.875 152.469 399.742C152.469 400.577 153.162 401.002 153.792 401.002C154.305 401.002 154.738 400.821 155.037 400.49V400.908ZM155.037 400.072C154.825 400.356 154.454 400.506 154.06 400.506C153.548 400.506 153.186 400.199 153.186 399.749C153.186 399.3 153.548 398.993 154.06 398.993C154.454 398.993 154.825 399.143 155.037 399.426V400.072ZM156.757 397.543C156.757 397.803 156.977 398.032 157.245 398.032C157.513 398.032 157.741 397.803 157.741 397.543C157.741 397.276 157.513 397.047 157.245 397.047C156.977 397.047 156.757 397.276 156.757 397.543ZM156.757 400.498C156.757 400.766 156.977 400.994 157.245 400.994C157.513 400.994 157.741 400.766 157.741 400.498C157.741 400.23 157.513 400.009 157.245 400.009C156.977 400.009 156.757 400.23 156.757 400.498ZM160.586 398.284C160.586 399.584 161.185 401.002 162.643 401.002C164.1 401.002 164.699 399.584 164.699 398.284C164.699 396.984 164.1 395.574 162.643 395.574C161.185 395.574 160.586 396.984 160.586 398.284ZM163.895 398.284C163.895 399.308 163.572 400.301 162.643 400.301C161.713 400.301 161.39 399.308 161.39 398.284C161.39 397.26 161.713 396.275 162.643 396.275C163.572 396.275 163.895 397.26 163.895 398.284ZM165.426 398.284C165.426 399.584 166.025 401.002 167.482 401.002C168.94 401.002 169.539 399.584 169.539 398.284C169.539 396.984 168.94 395.574 167.482 395.574C166.025 395.574 165.426 396.984 165.426 398.284ZM168.735 398.284C168.735 399.308 168.412 400.301 167.482 400.301C166.553 400.301 166.23 399.308 166.23 398.284C166.23 397.26 166.553 396.275 167.482 396.275C168.412 396.275 168.735 397.26 168.735 398.284ZM170.265 398.284C170.265 399.584 170.864 401.002 172.322 401.002C173.779 401.002 174.378 399.584 174.378 398.284C174.378 396.984 173.779 395.574 172.322 395.574C170.864 395.574 170.265 396.984 170.265 398.284ZM173.574 398.284C173.574 399.308 173.251 400.301 172.322 400.301C171.392 400.301 171.069 399.308 171.069 398.284C171.069 397.26 171.392 396.275 172.322 396.275C173.251 396.275 173.574 397.26 173.574 398.284ZM175.105 398.284C175.105 399.584 175.704 401.002 177.161 401.002C178.619 401.002 179.218 399.584 179.218 398.284C179.218 396.984 178.619 395.574 177.161 395.574C175.704 395.574 175.105 396.984 175.105 398.284ZM178.414 398.284C178.414 399.308 178.091 400.301 177.161 400.301C176.232 400.301 175.909 399.308 175.909 398.284C175.909 397.26 176.232 396.275 177.161 396.275C178.091 396.275 178.414 397.26 178.414 398.284ZM179.944 398.284C179.944 399.584 180.543 401.002 182.001 401.002C183.458 401.002 184.057 399.584 184.057 398.284C184.057 396.984 183.458 395.574 182.001 395.574C180.543 395.574 179.944 396.984 179.944 398.284ZM183.254 398.284C183.254 399.308 182.93 400.301 182.001 400.301C181.071 400.301 180.748 399.308 180.748 398.284C180.748 397.26 181.071 396.275 182.001 396.275C182.93 396.275 183.254 397.26 183.254 398.284ZM184.658 399.308H186.549V398.694H184.658V399.308ZM187.146 398.284C187.146 399.584 187.745 401.002 189.202 401.002C190.66 401.002 191.259 399.584 191.259 398.284C191.259 396.984 190.66 395.574 189.202 395.574C187.745 395.574 187.146 396.984 187.146 398.284ZM190.455 398.284C190.455 399.308 190.132 400.301 189.202 400.301C188.273 400.301 187.95 399.308 187.95 398.284C187.95 397.26 188.273 396.275 189.202 396.275C190.132 396.275 190.455 397.26 190.455 398.284Z" fill="#855B35"/>
<circle cx="103.549" cy="230.153" r="11.0301" fill="#01BDE4"/>
<path d="M99.6096 230.152L100.44 230.983L102.962 228.462L102.962 234.092L104.136 234.092L104.136 228.462L106.658 230.983L107.488 230.152L103.549 226.213L99.6096 230.152Z" fill="#FBF9BE"/>
<circle cx="103.549" cy="337.302" r="11.0301" fill="#01BDE4"/>
<path d="M107.488 337.302L106.658 336.472L104.136 338.993V333.363H102.962V338.993L100.44 336.472L99.6096 337.302L103.549 341.241L107.488 337.302Z" fill="#FBF9BE"/>
</g>
<defs>
<filter id="filter0_f_591_146" x="31.2365" y="478.784" width="279.701" height="102.369" filterUnits="userSpaceOnUse" color-interpolation-filters="sRGB">
<feFlood flood-opacity="0" result="BackgroundImageFix"/>
<feBlend mode="normal" in="SourceGraphic" in2="BackgroundImageFix" result="shape"/>
<feGaussianBlur stdDeviation="18.9423" result="effect1_foregroundBlur_591_146"/>
</filter>
<filter id="filter1_d_591_146" x="0.581703" y="0.0653629" width="340.837" height="599.313" filterUnits="userSpaceOnUse" color-interpolation-filters="sRGB">
<feFlood flood-opacity="0" result="BackgroundImageFix"/>
<feColorMatrix in="SourceAlpha" type="matrix" values="0 0 0 0 0 0 0 0 0 0 0 0 0 0 0 0 0 0 127 0" result="hardAlpha"/>
<feOffset dy="10.4837"/>
<feGaussianBlur stdDeviation="26.2091"/>
<feColorMatrix type="matrix" values="0 0 0 0 0.373991 0 0 0 0 0.361215 0 0 0 0 0.420833 0 0 0 0.1 0"/>
<feBlend mode="normal" in2="BackgroundImageFix" result="effect1_dropShadow_591_146"/>
<feBlend mode="normal" in="SourceGraphic" in2="effect1_dropShadow_591_146" result="shape"/>
</filter>
<linearGradient id="paint0_linear_591_146" x1="267.738" y1="29.2342" x2="98.8044" y2="530.928" gradientUnits="userSpaceOnUse">
<stop stop-color="#F7F7FB"/>
<stop offset="1" stop-color="#E7E7E7"/>
</linearGradient>
<linearGradient id="paint1_linear_591_146" x1="271.574" y1="49.2808" x2="-10.9875" y2="624.765" gradientUnits="userSpaceOnUse">
<stop stop-color="white"/>
<stop offset="1" stop-color="#FFF5D5"/>
</linearGradient>
<linearGradient id="paint2_linear_591_146" x1="38.5501" y1="486.337" x2="-16.9933" y2="101.196" gradientUnits="userSpaceOnUse">
<stop stop-color="#00A5F0"/>
<stop offset="1" stop-color="#00D7D7"/>
</linearGradient>
<linearGradient id="paint3_linear_591_146" x1="170.32" y1="399.149" x2="170.516" y2="456.861" gradientUnits="userSpaceOnUse">
<stop stop-color="#CCB579" stop-opacity="0"/>
<stop offset="1" stop-color="#CCB579"/>
</linearGradient>
</defs>
</svg>
