<svg width="365" height="409" viewBox="0 0 365 409" fill="none" xmlns="http://www.w3.org/2000/svg">
<path fill-rule="evenodd" clip-rule="evenodd" d="M361.155 109.07C358.833 114.971 355.359 120.351 350.937 124.896V124.882C341.946 134.112 329.688 139.438 316.805 139.714C303.923 139.99 291.449 135.192 282.072 126.356C261.269 106.726 233.639 95.9707 205.04 96.3692C176.441 96.7678 149.121 108.289 128.874 128.49C118.911 138.429 111.007 150.236 105.614 163.234C100.22 176.232 97.4443 190.167 97.4443 204.239C97.4443 218.312 100.22 232.246 105.614 245.244C111.007 258.242 118.911 270.049 128.874 279.988C149.121 300.189 176.441 311.711 205.04 312.109C233.639 312.508 261.269 301.752 282.072 282.123C291.449 273.288 303.921 268.49 316.803 268.763C329.684 269.036 341.942 274.358 350.937 283.582C355.359 288.127 358.833 293.507 361.155 299.408C363.478 305.309 364.603 311.613 364.464 317.953C364.326 324.293 362.927 330.543 360.349 336.336C357.771 342.13 354.066 347.353 349.449 351.701C320.245 379.383 283.607 397.955 244.016 405.146C204.424 412.336 163.595 407.834 126.522 392.19C89.4486 376.545 57.7378 350.437 35.2677 317.057C12.7976 283.677 0.542077 244.473 0 204.239C0.542077 164.005 12.7976 124.801 35.2677 91.4212C57.7378 58.0414 89.4486 31.9329 126.522 16.2885C163.595 0.644127 204.424 -3.85799 244.016 3.33273C283.607 10.5235 320.245 29.0954 349.449 56.7772C354.066 61.1248 357.771 66.3478 360.349 72.1418C362.927 77.9358 364.326 84.1849 364.464 90.5249C364.603 96.8649 363.478 103.169 361.155 109.07ZM255.238 204.065C255.385 230.666 233.693 252.352 206.788 252.5C179.882 252.649 157.951 231.205 157.804 204.604C157.657 178.003 179.349 156.318 206.255 156.169C233.16 156.02 255.091 177.464 255.238 204.065Z" fill="url(#paint0_linear_591_40)"/>
<defs>
<linearGradient id="paint0_linear_591_40" x1="-9.66785" y1="14.5161" x2="378.26" y2="263.467" gradientUnits="userSpaceOnUse">
<stop stop-color="#00A5F0"/>
<stop offset="1" stop-color="#00D7D7" stop-opacity="0"/>
</linearGradient>
</defs>
</svg>
