<svg width="405" height="402" viewBox="0 0 405 402" fill="none" xmlns="http://www.w3.org/2000/svg">
<path d="M202.151 0.00211142C148.862 -0.241835 97.6502 20.6617 59.7529 58.1269C21.8556 95.5922 0.367034 146.56 0 199.849C0 253.463 21.2977 304.881 59.2084 342.791C97.1191 380.702 148.537 402 202.151 402C255.765 402 307.183 380.702 345.093 342.791C383.004 304.881 404.302 253.463 404.302 199.849C403.935 146.56 382.446 95.5922 344.549 58.1269C306.651 20.6617 255.441 -0.241835 202.151 0.00211142ZM202.151 305.399C181.325 305.162 161.034 298.77 143.832 287.027C126.63 275.284 113.287 258.715 105.481 239.405C97.6754 220.096 95.7556 198.909 99.9643 178.511C104.173 158.113 114.323 139.415 129.134 124.772C143.945 110.129 162.756 100.195 183.201 96.2195C203.646 92.2441 224.81 94.4054 244.029 102.431C263.248 110.457 279.664 123.989 291.209 141.324C302.755 158.658 308.915 179.021 308.914 199.849C308.835 213.789 306.01 227.578 300.601 240.427C295.193 253.276 287.307 264.934 277.393 274.736C267.479 284.537 255.732 292.289 242.822 297.551C229.912 302.812 216.092 305.479 202.151 305.399Z" fill="url(#paint0_linear_591_317)"/>
<defs>
<linearGradient id="paint0_linear_591_317" x1="-10.7243" y1="14.2858" x2="388.126" y2="302.791" gradientUnits="userSpaceOnUse">
<stop stop-color="#00A5F0"/>
<stop offset="1" stop-color="#00D7D7" stop-opacity="0"/>
</linearGradient>
</defs>
</svg>
